<?xml version="1.0" encoding="utf-8"?>
<!-- Generator: Adobe Illustrator 24.3.0, SVG Export Plug-In . SVG Version: 6.00 Build 0)  -->
<svg version="1.1" id="Layer_1" xmlns="http://www.w3.org/2000/svg" xmlns:xlink="http://www.w3.org/1999/xlink" x="0px" y="0px"
	 width="512px" height="512px" viewBox="0 0 512 512" style="enable-background:new 0 0 512 512;" xml:space="preserve">
<style type="text/css">
	.st0{fill:#F97015;}
</style>
<g>
	<rect x="116.7" y="125.1" class="st0" width="10.5" height="10.5"/>
	<path class="st0" d="M497.7,466.6l-40.1-40.1c-1-1-1.2-2.6-0.5-3.8c8.1-13.7,12.5-28.9,13.4-44.2c0.1-1.8,0.1-3.5,0.1-5.3V130.4
		c0-21.3-17.4-38.7-38.7-38.8h-33.5c-1.7,0-3.1-1.4-3.1-3.1V71.7c0-1.7,1.4-3.1,3.1-3.1h16.8c1.4,0,2.7-0.5,3.7-1.5c2-2,2-5.4,0-7.4
		L368.6,9.4c-1-1-2.3-1.5-3.7-1.5c-1.4,0-2.7,0.5-3.7,1.5l-50.3,50.3c-1,1-1.5,2.3-1.5,3.7c0,2.9,2.3,5.2,5.2,5.2h16.8
		c1.7,0,3.1,1.4,3.1,3.1v16.8c0,1.7-1.4,3.1-3.1,3.1H46.6c-21.3,0-38.7,17.4-38.7,38.7v53.4v8.4v189.5c0,21.3,17.4,38.7,38.7,38.7
		h139.5c1,0,1.9,0.5,2.5,1.3c0.6,0.8,0.8,1.8,0.5,2.8l-20.1,67c-0.4,1.3-1.6,2.2-3,2.2h-15.8v10.5h178v-10.5h-15.8
		c-1.4,0-2.6-0.9-3-2.2l-9.9-32.9l-0.7,0.2l0.7-0.2L287,420.4h0.9c0.4,0.8,0.9,1.5,1.3,2.3c17.5,29.6,49.7,48,84,48c0,0,0,0,0,0
		c17.3,0,34.4-4.7,49.4-13.5c0.5-0.3,1-0.4,1.6-0.4c0.8,0,1.6,0.3,2.2,0.9l40.1,40.1c4.2,4.1,9.7,6.4,15.6,6.5h0
		c5.9,0,11.4-2.3,15.5-6.4c4.1-4.2,6.4-9.7,6.4-15.5C504.1,476.3,501.9,470.8,497.7,466.6z M398.4,102.1h33.5
		c15.6,0,28.3,12.7,28.3,28.3v198.9c-1-1.9-2-3.7-3-5.6c-13.6-23.1-36.2-39.4-61.9-45.4V105.2C395.3,103.5,396.7,102.1,398.4,102.1z
		 M332,56.2c-0.5-1.2-0.2-2.5,0.7-3.4l30-30c0.6-0.6,1.4-0.9,2.2-0.9c0.8,0,1.6,0.3,2.2,0.9l30,30c0.9,0.9,1.2,2.3,0.7,3.4
		s-1.6,1.9-2.9,1.9H390c-2.9,0-5.2,2.4-5.2,5.2v213.1c-3.9-0.5-7.8-0.7-11.7-0.7c-9.5,0-19,1.4-28.1,4.2V63.3c0-2.9-2.3-5.2-5.2-5.2
		h-4.9C333.6,58.1,332.4,57.3,332,56.2z M18.3,192.1v-8.4v-53.4c0-15.6,12.7-28.3,28.3-28.3h284.8c1.7,0,3.1,1.4,3.1,3.1v178.5
		c-3.7,1.6-7.3,3.4-10.8,5.5c-4.3,2.6-8.4,5.4-12.2,8.5v-159c0-2.9-2.3-5.2-5.2-5.2H256c-2.9,0-5.2,2.4-5.2,5.2V323
		c0,1.7-1.4,3.1-3.1,3.1H239h-8.2c-1.7,0-3.1-1.4-3.1-3.1V197.4c0-2.9-2.3-5.2-5.2-5.2h-50.3c-2.9,0-5.2,2.4-5.2,5.2V323
		c0,1.7-1.4,3.1-3.1,3.1h-16.8c-1.7,0-3.1-1.4-3.1-3.1v-67c0-2.9-2.3-5.2-5.2-5.2H88.5c-2.9,0-5.2,2.4-5.2,5.2v67
		c0,1.7-1.4,3.1-3.1,3.1H49.7v10.5h211.5l21.7-0.2c-3,7.4-5.1,15.2-6.3,23.2H21.4c-1.7,0-3.1-1.4-3.1-3.1V192.1z M287.9,326.2h-26.6
		V147.1c0-1.7,1.4-3.1,3.1-3.1h33.5c1.7,0,3.1,1.4,3.1,3.1v160.6C295.9,313.4,291.5,319.6,287.9,326.2z M217.3,205.7V323
		c0,1.7-1.4,3.1-3.1,3.1h-33.5c-1.7,0-3.1-1.4-3.1-3.1V205.7c0-1.7,1.4-3.1,3.1-3.1h33.5C215.9,202.6,217.3,204,217.3,205.7z
		 M133.5,264.4V323c0,1.7-1.4,3.1-3.1,3.1H96.8c-1.7,0-3.1-1.4-3.1-3.1v-58.6c0-1.7,1.4-3.1,3.1-3.1h33.5
		C132.1,261.2,133.5,262.6,133.5,264.4z M46.6,409.9c-15.6,0-28.3-12.7-28.3-28.3v-8.4c0-1.7,1.4-3.1,3.1-3.1h254.4
		c-0.4,13.4,1.9,26.9,7.1,39.8H46.6z M289.6,461.6L289.6,461.6l8.4,28.1c0.3,1,0.1,2-0.5,2.8c-0.6,0.8-1.5,1.3-2.5,1.3H183.5
		c-1,0-1.9-0.5-2.5-1.3c-0.6-0.8-0.8-1.8-0.5-2.8l20.1-67c0.4-1.3,1.6-2.2,3-2.2h72.9L289.6,461.6z M373.3,460.2
		c-47.9,0-86.9-39-86.9-86.9c0-17.8,5.4-34.4,14.7-48.2c3.1-4.6,6.6-8.9,10.5-12.8c6.7-6.8,14.4-12.4,23-16.7
		c3.4-1.7,6.9-3.2,10.5-4.4c8.9-3.1,18.4-4.7,28.3-4.7c3.9,0,7.7,0.3,11.5,0.8c3.6,0.5,7.1,1.2,10.5,2.1
		c37.3,9.8,64.9,43.8,64.9,84.1C460.1,421.1,421.1,460.1,373.3,460.2z M490.2,490.7c-2.1,2-5,3.2-7.9,3.2c-3.1,0-6.2-1.3-8.3-3.5
		l-38.1-38.1c-0.6-0.6-1-1.5-0.9-2.4c0-0.9,0.4-1.7,1.1-2.3c4.1-3.5,8-7.4,11.5-11.5c0.6-0.7,1.4-1.1,2.3-1.1c0,0,0.1,0,0.1,0
		c0.8,0,1.6,0.3,2.2,0.9l38.1,38.1c0,0,0.3,0.3,0.4,0.4C495,479,494.8,486.3,490.2,490.7z"/>
	<path class="st0" d="M373.3,309.4c-35.2,0-63.9,28.7-63.9,63.9c0,35.2,28.6,63.9,63.9,63.9c35.2,0,63.9-28.6,63.9-63.9
		C437.1,338.1,408.5,309.4,373.3,309.4z M373.3,426.7c-29.4,0-53.4-24-53.4-53.4c0-29.4,24-53.4,53.4-53.4c29.4,0,53.4,24,53.4,53.4
		C426.6,402.7,402.7,426.6,373.3,426.7z"/>
	<path class="st0" d="M343.1,370.1h10.6c1.4-8.5,8.1-15.1,16.5-16.5v-10.6C355.9,344.6,344.6,355.9,343.1,370.1z"/>
	<rect x="83.2" y="125.1" class="st0" width="10.5" height="10.5"/>
	<rect x="49.7" y="125.1" class="st0" width="10.5" height="10.5"/>
</g>
</svg>
