<?xml version="1.0" encoding="utf-8"?>
<!-- Generator: Adobe Illustrator 24.3.0, SVG Export Plug-In . SVG Version: 6.00 Build 0)  -->
<svg version="1.1" id="Layer_1" xmlns="http://www.w3.org/2000/svg" xmlns:xlink="http://www.w3.org/1999/xlink" x="0px" y="0px"
	 width="512px" height="512px" viewBox="0 0 512 512" style="enable-background:new 0 0 512 512;" xml:space="preserve">
<style type="text/css">
	.st0{fill:#F97015;}
</style>
<g>
	<path class="st0" d="M93.5,118.9c-16.5,0-29.8-13.4-29.8-29.8S77,59.2,93.5,59.2c16.5,0,29.9,13.4,29.9,29.8S110,118.9,93.5,118.9z
		 M93.5,71.4c-9.7,0-17.7,7.9-17.7,17.7s7.9,17.7,17.7,17.7c9.8,0,17.7-7.9,17.7-17.7S103.3,71.4,93.5,71.4z"/>
	<path class="st0" d="M299.9,118.9c-16.5,0-29.8-13.4-29.8-29.8s13.4-29.8,29.8-29.8h89.5c16.5,0,29.8,13.4,29.8,29.8
		s-13.4,29.8-29.8,29.8H299.9z M299.9,71.4c-9.7,0-17.7,7.9-17.7,17.7s7.9,17.7,17.7,17.7h89.5c9.7,0,17.7-7.9,17.7-17.7
		s-7.9-17.7-17.7-17.7H299.9z"/>
	<path class="st0" d="M181.2,118.9c-16.5,0-29.8-13.4-29.8-29.8s13.4-29.8,29.8-29.8c16.5,0,29.9,13.4,29.9,29.8
		S197.7,118.9,181.2,118.9z M181.2,71.4c-9.7,0-17.7,7.9-17.7,17.7s7.9,17.7,17.7,17.7c9.8,0,17.7-7.9,17.7-17.7
		S191,71.4,181.2,71.4z"/>
	<path class="st0" d="M142.4,322.1c-0.5,0-1-0.1-1.4-0.2c-3.3-0.8-5.3-4.1-4.5-7.3l20-83.7c0.7-2.8,3.1-4.7,5.9-4.7
		c0.5,0,1,0.1,1.4,0.2c3.3,0.8,5.3,4.1,4.5,7.3l-20,83.7C147.7,320.2,145.2,322.1,142.4,322.1z"/>
	<path class="st0" d="M208.5,314.5c-1.5,0-2.9-0.5-4-1.5c-1.2-1.1-1.9-2.6-2-4.2c-0.1-1.6,0.5-3.2,1.5-4.4l24.6-27.6
		c1.4-1.5,1.4-3.8,0-5.3L204,243.9c-1.1-1.2-1.6-2.8-1.5-4.4c0.1-1.6,0.8-3.1,2-4.2c1.1-1,2.6-1.5,4-1.5c1.7,0,3.4,0.7,4.5,2
		l28.3,31.8c3.3,3.7,3.3,9.5,0,13.2L213,312.5C211.9,313.8,210.2,314.5,208.5,314.5z"/>
	<path class="st0" d="M96.3,314.5c-1.7,0-3.4-0.7-4.5-2l-28.3-31.8c-3.3-3.7-3.3-9.5,0-13.2l28.3-31.8c1.2-1.3,2.8-2,4.6-2
		c1.5,0,2.9,0.5,4,1.5c1.2,1.1,1.9,2.6,2,4.2c0.1,1.6-0.5,3.2-1.5,4.4l-24.6,27.6c-1.4,1.5-1.4,3.8,0,5.3l24.6,27.6
		c1.1,1.2,1.6,2.8,1.5,4.4c-0.1,1.6-0.8,3.1-2,4.2C99.2,314,97.8,314.5,96.3,314.5z"/>
	<path class="st0" d="M374.1,496.1c-10.2,0-18.6-8.3-18.6-18.6v-3.9c0-1.8-1.1-3.3-2.8-3.8c-6-1.9-11.9-4.3-17.5-7.3
		c-0.6-0.3-1.2-0.5-1.9-0.5c-1,0-2.1,0.4-2.8,1.2l-2.7,2.7c-3.5,3.5-8.2,5.4-13.2,5.4c-5,0-9.7-1.9-13.1-5.5L288.5,453
		c-7.2-7.2-7.2-19,0-26.3l2.7-2.7c1.2-1.2,1.5-3.2,0.7-4.7c-3-5.6-5.4-11.5-7.3-17.5c-0.5-1.7-2.1-2.8-3.8-2.8l-233.6,0
		c-23.9,0-43.3-22.7-43.3-50.6v-282c0-27.9,19.4-50.6,43.3-50.6h381c23.9,0,43.3,22.7,43.3,50.6v214.9c0,1.1,0.4,2.1,1.2,2.8
		l5.2,5.2c3.5,3.5,5.4,8.2,5.4,13.2c0,5-1.9,9.6-5.5,13.1l-2.7,2.7c-1.2,1.2-1.5,3.1-0.7,4.7c3,5.6,5.4,11.6,7.3,17.7
		c0.5,1.7,2.1,2.8,3.8,2.8h3.7c10.3,0,18.6,8.3,18.6,18.6v18.3c0,10.2-8.4,18.6-18.6,18.6h-3.8c-1.8,0-3.3,1.1-3.8,2.8
		c-1.9,6-4.3,11.9-7.3,17.5c-0.8,1.6-0.5,3.5,0.7,4.7l2.7,2.7c3.5,3.5,5.4,8.2,5.4,13.2c0,5-1.9,9.6-5.5,13.1l-12.9,12.9
		c-3.5,3.5-8.2,5.4-13.2,5.4c-5,0-9.7-1.9-13.2-5.4l-2.7-2.7c-0.8-0.8-1.8-1.2-2.8-1.2c-0.6,0-1.3,0.2-1.9,0.5
		c-5.6,3-11.5,5.4-17.6,7.3c-1.7,0.5-2.8,2.1-2.8,3.8v3.9c0,10.3-8.3,18.6-18.6,18.6H374.1z M331.6,447.3c1.1,0,2.3,0.3,3.2,0.9
		c8.8,5.5,18.2,9.4,28.1,11.6c2.8,0.6,4.7,3.1,4.7,5.9v11.6c0,3.5,2.9,6.4,6.4,6.4h18.3c3.5,0,6.4-2.9,6.4-6.4v-11.6
		c0-2.9,1.9-5.3,4.7-5.9c10-2.3,19.5-6.2,28.2-11.7c1-0.6,2.1-0.9,3.2-0.9c1.6,0,3.1,0.6,4.3,1.8l8.2,8.2c1.2,1.2,2.8,1.9,4.5,1.9
		c1.7,0,3.3-0.7,4.6-1.9l12.9-12.9c1.2-1.2,1.9-2.8,1.9-4.5c0-1.7-0.7-3.3-1.9-4.6l-8.2-8.2c-2-2-2.4-5.1-0.9-7.5
		c5.4-8.6,9.4-18.1,11.6-28c0.6-2.8,3.1-4.7,5.9-4.7h11.5c3.5,0,6.4-2.9,6.4-6.4v-18.3c0-3.5-2.9-6.4-6.4-6.4H478
		c-2.9,0-5.3-1.9-5.9-4.7c-2.3-10-6.2-19.5-11.7-28.2c-1.5-2.4-1.2-5.5,0.8-7.5l8.2-8.2c1.2-1.2,1.9-2.8,1.9-4.5
		c0-1.7-0.7-3.3-1.9-4.6c0,0-8.2-8.2-8.2-8.2l-4.7-4.7c-1.2-1.2-2.8-1.9-4.6-1.9c-1.7,0-3.3,0.7-4.5,1.9l-8.2,8.2
		c-1.1,1.1-2.7,1.8-4.3,1.8c-1.1,0-2.3-0.3-3.2-0.9c-8.9-5.6-18.4-9.5-28.5-11.7c-2.8-0.6-4.8-3.1-4.8-5.9v-11.4
		c0-3.5-2.9-6.4-6.4-6.4h-18.3c-3.5,0-6.4,2.9-6.4,6.4v11.5c0,2.8-1.9,5.3-4.7,5.9c-10,2.3-19.4,6.3-28.1,11.8
		c-1,0.6-2.1,0.9-3.3,0.9c-1.6,0-3.2-0.6-4.3-1.8l-8.1-8.1c-1.2-1.2-2.8-1.9-4.5-1.9c-1.7,0-3.3,0.7-4.6,1.9l-12.9,12.9
		c-1.2,1.2-1.9,2.8-1.9,4.5c0,1.7,0.7,3.3,1.9,4.5l8.2,8.3c2,2,2.4,5.1,0.9,7.5c-5.4,8.6-9.2,18-11.5,27.9c-0.6,2.8-3.1,4.7-5.9,4.7
		H277c-3.5,0-6.4,2.9-6.4,6.4v18.3c0,3.5,2.9,6.4,6.4,6.4h11.6c2.9,0,5.3,1.9,5.9,4.7c2.3,10,6.2,19.4,11.7,28
		c1.5,2.4,1.2,5.5-0.8,7.6l-8.2,8.2c-2.5,2.5-2.5,6.6,0,9.1l12.9,12.9c1.2,1.2,2.8,1.9,4.5,1.9c1.7,0,3.3-0.7,4.6-1.9l8.2-8.2
		C328.4,448,330,447.3,331.6,447.3z M20.1,161.4c-2.2,0-4,1.8-4,4v183c0,20.8,14.3,38.4,31.2,38.4h207.3c1.1,0,2.2-0.5,3-1.3
		c0.8-0.8,1.1-2,1-3.1c-0.1-0.7-0.1-1.3-0.1-2v-18.3c0-10.2,8.3-18.6,18.6-18.6h3.8c1.8,0,3.3-1.1,3.8-2.8c1.8-6,4.2-11.8,7.2-17.3
		c0.8-1.5,0.5-3.4-0.7-4.7l-2.8-2.8c-3.5-3.5-5.4-8.1-5.4-13.1c0-5,1.9-9.7,5.4-13.2l12.9-12.9c3.5-3.5,8.2-5.4,13.2-5.4
		c5,0,9.7,1.9,13.2,5.4l2.6,2.6c0.8,0.8,1.8,1.2,2.8,1.2c0.6,0,1.3-0.2,1.9-0.5c5.6-3,11.5-5.4,17.5-7.3c1.7-0.5,2.8-2.1,2.8-3.8
		v-3.8c0-10.3,8.3-18.6,18.6-18.6H392c10.3,0,18.6,8.3,18.6,18.6v3.6c0,1.8,1.1,3.3,2.8,3.8c6.2,1.9,12.2,4.4,17.9,7.4
		c0.6,0.3,1.2,0.5,1.9,0.5c1,0,2.1-0.4,2.8-1.2l2.7-2.7c3.5-3.5,8.1-5.4,13.1-5.4c0.9,0,1.8,0.1,2.9,0.2c0.2,0,0.4,0,0.6,0
		c0.9,0,1.9-0.3,2.6-1c0.9-0.8,1.4-1.9,1.4-3V165.4c0-2.2-1.8-4-4-4H20.1z M47.2,28.1c-16.9,0-31.2,17.6-31.2,38.4v78.8
		c0,2.2,1.8,4,4,4h435.3c2.2,0,4-1.8,4-4V66.5c0-20.8-14.3-38.4-31.2-38.4H47.2z"/>
	<path class="st0" d="M383.2,428.9c-31.8,0-57.7-25.8-57.7-57.6c0-31.8,25.9-57.6,57.7-57.6c31.8,0,57.6,25.8,57.6,57.6
		C440.8,403.1,415,428.9,383.2,428.9z M383.2,325.8c-25.1,0-45.5,20.4-45.5,45.4c0,25,20.4,45.4,45.5,45.4
		c25.1,0,45.4-20.4,45.4-45.4C428.7,346.2,408.3,325.8,383.2,325.8z"/>
</g>
</svg>
