<?xml version="1.0" encoding="utf-8"?>
<!-- Generator: Adobe Illustrator 24.3.0, SVG Export Plug-In . SVG Version: 6.00 Build 0)  -->
<svg version="1.1" id="Layer_1" xmlns="http://www.w3.org/2000/svg" xmlns:xlink="http://www.w3.org/1999/xlink" x="0px" y="0px"
	 width="512px" height="512px" viewBox="0 0 512 512" style="enable-background:new 0 0 512 512;" xml:space="preserve">
<style type="text/css">
	.st0{fill:#F97015;}
</style>
<g>
	<path class="st0" d="M450.6,77c-9.6,0-17.4-7.8-17.4-17.4s7.8-17.4,17.4-17.4c9.6,0,17.4,7.8,17.4,17.4S460.1,77,450.6,77z
		 M450.6,53.3c-3.6,0-6.4,2.8-6.4,6.4s2.8,6.4,6.4,6.4c3.5,0,6.4-2.9,6.4-6.4S454.1,53.3,450.6,53.3z"/>
	<path class="st0" d="M220.8,499.5c-3,0-5.5-2.5-5.5-5.5v-37.7c0-0.6-0.4-1-1-1H41c-13.8,0-25.1-11.2-25.1-25.1V103.4
		C16,89.6,27.2,78.3,41,78.3h25.9c0.6,0,1-0.4,1-1V37.5c0-13.8,11.2-25.1,25.1-25.1H471c13.8,0,25.1,11.2,25.1,25.1v326.8
		c0,13.8-11.2,25.1-25.1,25.1H445c-0.6,0-1,0.4-1,1v39.8c0,13.8-11.2,25.1-25.1,25.1h-69.3c-0.6,0-1,0.4-1,1V494
		c0,3-2.5,5.5-5.5,5.5H220.8z M227.7,418.8c-0.5,0-1,0.4-1,1l-0.4,67.7c0,0.3,0.1,0.5,0.3,0.7s0.4,0.3,0.7,0.3h109.4
		c0.6,0,1-0.4,1-1v-67.3c0-0.8-0.6-1.4-1.4-1.4H227.7z M41,89.4c-7.7,0-14,6.3-14,14v326.9c0,7.7,6.3,14,14,14h173.2
		c0.6,0,1-0.4,1-1v-23.1c0-6.8,5.6-12.4,12.4-12.4h10.1c0.5,0,1-0.4,1-0.9c0.5-5.8-0.7-11.6-3.4-16.8c-0.2-0.3-0.5-0.5-0.9-0.5H93
		c-13.8,0-25.1-11.2-25.1-25.1V90.4c0-0.6-0.4-1-1-1H41z M329.5,389.4c-0.4,0-0.7,0.2-0.9,0.6c-2.7,5.3-3.8,11.1-3.4,16.8
		c0,0.5,0.5,0.9,1,0.9h10.1c6.8,0,12.4,5.6,12.4,12.4v23.1c0,0.6,0.4,1,1,1H419c7.7,0,14-6.3,14-14v-39.8c0-0.6-0.4-1-1-1H329.5z
		 M275.5,256.8c-0.4,0-0.7,0.2-0.9,0.5L217,361c-0.1,0.3-0.2,0.6,0,0.9s0.4,0.5,0.7,0.6c19.9,5.6,33.5,24.2,32.3,44.3
		c0,0.3,0.1,0.5,0.3,0.7c0.2,0.2,0.5,0.3,0.7,0.3h62.1c0.3,0,0.5-0.1,0.7-0.3c0.2-0.2,0.3-0.5,0.3-0.7
		c-1.1-20.2,12.3-38.6,31.9-43.7c0.5-0.2,0.8-0.5,0.9-0.6c0.3-0.3,0.4-0.8,0.2-1.2l-57.6-104c-0.2-0.3-0.5-0.5-0.9-0.5
		c-0.1,0-0.2,0-0.2,0c-0.4,0.1-0.8,0.5-0.8,1v33.5c0,0.4,0.3,0.8,0.7,0.9c7.9,2.7,13.1,10,13.1,18.2c0,6.9-3.7,13.3-9.6,16.7
		c-2.9,1.7-6.3,2.6-9.7,2.6c-3.6,0-7.3-1-10.8-3c-2.1-1.2-3.8-2.9-5.2-4.9c-4.2-6.7-4.6-14.5-1.1-20.8c2.3-4.2,6.1-7.3,10.7-8.8
		c0.4-0.1,0.7-0.5,0.7-0.9v-33.5c0-0.5-0.3-0.9-0.7-1C275.6,256.8,275.6,256.8,275.5,256.8z M282.1,230.8c3.3,0,6.3,1.8,7.8,4.7
		l66.7,120.2c1.9,3.4,2.1,7.3,0.6,10.8c-1.6,3.6-4.7,6.3-8.5,7.3c-2.3,0.6-4.6,1.5-7.1,2.9c-0.4,0.2-0.6,0.7-0.5,1.1
		c0.1,0.4,0.5,0.7,1,0.7H471c7.7,0,14-6.3,14-14.1V107.8c0-0.6-0.4-1-1-1H236.1c-2.9,0-5.8-1.2-7.8-3.3l-29.1-30.2
		c-0.2-0.2-0.4-0.3-0.7-0.3h-62.4c-0.6,0-1,0.4-1,1v22c0,6-4.9,10.9-10.9,10.9H80c-0.6,0-1,0.4-1,1v256.7c0,7.7,6.3,14,14,14h128.8
		c0.5,0,0.9-0.3,1-0.8c0.1-0.4-0.1-0.9-0.5-1.1c-1.9-1-4.3-2.2-7.1-2.9c-3.8-1-6.9-3.6-8.4-7.2c-1.5-3.6-1.4-7.6,0.5-10.9
		l66.8-120.2C275.7,232.6,278.7,230.9,282.1,230.8z M282,302.1c-3,0-5.8,1.6-7.3,4.3c-0.9,1.7-2,5.2,0.7,9.6c0.3,0.5,0.7,1,1.3,1.3
		c1.8,1,3.5,1.5,5.3,1.5c1.5,0,2.9-0.4,4.2-1.1c2.5-1.5,4.1-4.3,4.1-7.2C290.3,305.8,286.6,302.1,282,302.1z M199.1,61.9
		c2.9,0,5.8,1.2,7.8,3.3L236,95.4c0.2,0.2,0.4,0.3,0.7,0.3H484c0.6,0,1-0.4,1-1V37.5c0-7.7-6.3-14-14-14H93c-7.7,0-14,6.3-14,14
		v57.2c0,0.6,0.4,1,1,1h43.1c0.6,0,1-0.4,1-1v-22c0-6,4.9-10.9,10.9-10.9H199.1z"/>
	<path class="st0" d="M389,331.3c-6.4,0-11.6-5.2-11.6-11.6v-29.4c0-6.4,5.2-11.6,11.6-11.6h5.4c0.3,0,0.6-0.1,0.8-0.4
		c0.2-0.2,0.3-0.6,0.2-0.9c-11.1-41.6-43.9-73.7-85.6-83.7c-0.1,0-0.2,0-0.2,0c-0.2,0-0.4,0.1-0.6,0.2c-0.2,0.2-0.4,0.5-0.4,0.8v2.8
		c0,6.4-5.2,11.6-11.6,11.6h-29.4c-6.4,0-11.6-5.2-11.6-11.6v-2.8c0-0.3-0.1-0.6-0.4-0.8c-0.2-0.1-0.4-0.2-0.6-0.2
		c-0.1,0-0.2,0-0.2,0c-41.8,10.1-74.6,42.2-85.6,83.7c-0.1,0.3,0,0.6,0.2,0.9c0.2,0.2,0.5,0.4,0.8,0.4h5.9c6.4,0,11.6,5.2,11.6,11.6
		v29.4c0,6.4-5.2,11.6-11.6,11.6h-29.4c-6.4,0-11.6-5.2-11.6-11.6v-29.4c0-6.4,5.2-11.6,11.6-11.6h10.1c0.5,0,0.9-0.3,1-0.8
		c8.9-37.4,33.9-68.6,68.7-85.6c0.4-0.2,0.6-0.7,0.5-1.1c-0.1-0.5-0.5-0.8-1-0.8h-63.2c-0.4,0-0.8,0.3-0.9,0.7
		c-0.4,1.1-0.8,2.3-1.4,3.4c-2.1,4.3-5.5,7.9-9.8,10.1c-3.9,2-8,3-12.3,3c-6.7,0-12.9-2.6-17.4-7.3c-4.7-4.6-7.2-10.8-7.2-17.5
		c0-6.6,2.6-12.8,7.2-17.4c4.4-4.4,10.8-7,17.5-7c6.7,0,12.9,2.5,17.4,6.9c3.6,3.7,6,8.3,6.9,13.3c0.1,0.5,0.5,0.8,1,0.8h91.1
		c0.6,0,1-0.4,1-1V168c0-6.4,5.2-11.6,11.6-11.6h29.4c6.4,0,11.6,5.2,11.6,11.6v10.2c0,0.6,0.4,1,1,1h91.2c0.5,0,0.9-0.3,1-0.8
		c0.9-5.1,3.3-9.6,6.9-13.2c4.5-4.5,10.8-7,17.5-7c6.7,0,13.1,2.5,17.8,6.9c7.6,7.8,9.4,19,4.5,29.2c-2.1,4.3-5.5,7.9-9.8,10.1
		c-3.9,2-8,3-12.3,3c-6.7,0-12.9-2.6-17.4-7.3c-2.6-2.6-4.5-5.7-5.7-9.2c-0.1-0.4-0.5-0.7-0.9-0.7h-63.4c-0.5,0-0.9,0.3-1,0.8
		s0.1,0.9,0.5,1.1c34.7,16.9,59.8,48.1,68.7,85.6c0.1,0.5,0.5,0.8,1,0.8h10.6c6.4,0,11.6,5.2,11.6,11.6v29.4
		c0,6.4-5.2,11.6-11.6,11.6H389z M388.8,289.6c-0.3,0-0.5,0.1-0.7,0.3s-0.3,0.4-0.3,0.7l0.4,29c0,0.5,0.5,1,1,1c0,0,29-0.4,29-0.4
		c0.3,0,0.5-0.1,0.7-0.3c0.2-0.2,0.3-0.4,0.3-0.7l-0.4-28.6c0-0.5-0.5-1-1-1H388.8z M146.3,289.6c-0.3,0-0.5,0.1-0.7,0.3
		s-0.3,0.4-0.3,0.7l0.4,29c0,0.5,0.5,1,1,1c0,0,29-0.4,29-0.4c0.3,0,0.5-0.1,0.7-0.3c0.2-0.2,0.3-0.4,0.3-0.7l-0.4-28.6
		c0-0.5-0.5-1-1-1H146.3z M266.8,184.7c-0.1,0.2-0.2,0.4-0.2,0.7c0,0,0,0.1,0,0.2c0.1,0.8,0.1,1.3-0.1,1.9c0,0.1,0,0.2,0,0.2
		l0.2,9.8c0,0.5,0.5,1,1,1c0,0,29.1-0.3,29.1-0.3c0.3,0,0.5-0.1,0.7-0.3c0.2-0.2,0.3-0.4,0.3-0.7l-0.2-8.8c0-0.1,0-0.2,0-0.2
		c-0.2-0.8-0.3-1.6-0.1-2.4c0-0.1,0-0.1,0-0.2c0-0.1,0-0.3-0.1-0.4l-0.1-0.2c0-0.1,0-0.1,0-0.2c0-0.1,0-0.2,0.1-0.4
		c0-0.2,0.1-0.3,0.1-0.5c0-0.1,0-0.1,0-0.2l-0.2-15.3c0-0.5-0.5-1-1-1h-29c-0.3,0-0.5,0.1-0.7,0.3c-0.2,0.2-0.3,0.4-0.3,0.7
		l0.2,15.3c0,0.1,0,0.2,0,0.2c0,0.1,0.1,0.2,0.1,0.3C266.7,184.5,266.8,184.6,266.8,184.7z M425.8,169c-3.7,0-7.1,1.4-9.7,4
		c-2.6,2.7-4,6.1-4,9.7c0,3.7,1.4,7.1,4,9.6c2.5,2.6,6,4.1,9.7,4.1c2.4,0,4.8-0.6,7.2-1.8c2-1,3.7-2.8,4.8-4.9
		c2.8-6.1,1.9-12.4-2.3-16.8C432.9,170.4,429.4,169,425.8,169z M138.2,169c-3.7,0-7.1,1.4-9.7,4c-2.6,2.7-4,6.1-4,9.7
		c0,3.7,1.4,7.1,4,9.6c2.5,2.6,6,4.1,9.7,4.1c2.4,0,4.8-0.6,7.2-1.8c2-1,3.7-2.8,4.8-4.9c2.8-6.1,1.9-12.4-2.3-16.8
		C145.4,170.4,141.9,169,138.2,169z M406.2,77c-9.6,0-17.4-7.8-17.4-17.4s7.8-17.4,17.4-17.4c9.6,0,17.4,7.8,17.4,17.4
		S415.8,77,406.2,77z M406.2,53.3c-3.6,0-6.4,2.8-6.4,6.4s2.8,6.4,6.4,6.4c3.5,0,6.4-2.9,6.4-6.4S409.7,53.3,406.2,53.3z M361.7,77
		c-9.6,0-17.4-7.8-17.4-17.4s7.8-17.4,17.4-17.4c9.6,0,17.4,7.8,17.4,17.4S371.3,77,361.7,77z M361.7,53.3c-3.6,0-6.4,2.8-6.4,6.4
		s2.8,6.4,6.4,6.4c3.5,0,6.4-2.9,6.4-6.4S365.2,53.3,361.7,53.3z"/>
</g>
</svg>
