<?xml version="1.0" encoding="utf-8"?>
<!-- Generator: Adobe Illustrator 24.3.0, SVG Export Plug-In . SVG Version: 6.00 Build 0)  -->
<svg version="1.1" id="Layer_1" xmlns="http://www.w3.org/2000/svg" xmlns:xlink="http://www.w3.org/1999/xlink" x="0px" y="0px"
	 width="512px" height="512px" viewBox="0 0 512 512" style="enable-background:new 0 0 512 512;" xml:space="preserve">
<style type="text/css">
	.st0{fill:#F97015;}
</style>
<g>
	<path class="st0" d="M19.7,510c-4.6,0-9.2-1.9-12.5-5.2c-0.1-0.1-0.2-0.2-0.3-0.2c-3.1-3.3-4.9-7.7-4.9-12.3v-24.6
		c0-4.6,1.8-9,5.1-12.4c0.1-0.1,0.2-0.2,0.3-0.3c3.3-3.3,7.7-5.1,12.3-5.1h27.5c0.5,0,1.1-0.2,1.4-0.6c0.4-0.4,0.6-0.9,0.6-1.4
		c0-0.1,0-0.4,0-0.4l0-27.2c0-3.8,1.4-7.3,4.1-10c0.1-0.1,0.1-0.1,0.2-0.2c2.7-2.7,6.3-4.2,10.1-4.2h17.1c0.6,0,1.1-0.3,1.5-0.7
		c0.4-0.4,0.5-1,0.4-1.6c-3.1-18.8-5.9-67.2,36.7-109.8c39.4-39.4,43.8-51.4,37-67.4c-0.3-0.6-0.8-1-1.4-1.2c-0.1,0-0.3,0-0.4,0
		c-0.5,0-1,0.2-1.4,0.5c-5.3,5-12.3,7.3-21.8,7.3c-5.8,0-11.9-0.8-17.7-1.7c-4.8-0.7-9.4-1.3-13-1.3c-2.4,0-4.2,0.3-5.7,0.8
		c-1,0.4-1.5,1.5-1.2,2.5l3.7,10.8c1,2.9-0.4,6.1-3.2,7.4l-37.7,18.7c-0.8,0.4-1.7,0.6-2.6,0.6c-2.2,0-4.2-1.2-5.3-3.2L19.8,214
		c-1.3-2.5-0.8-5.5,1.3-7.3l99.7-94.5c0.7-0.7,0.8-1.9,0.2-2.7l-20.6-25.6c-2.1-2.6-1.6-6.3,0.9-8.4c0.3-0.3,0.6-0.5,0.9-0.6
		c0.1-0.1,0.2-0.1,0.3-0.2c6.1-3.1,12.6-4.7,19.1-4.7c5.1,0,10.4,1,15.9,2.8c8.5,2.9,17.5,8.2,27.6,16.3c0.4,0.3,0.8,0.4,1.2,0.4
		c0,0,0.1,0,0.1,0c2.1-0.1,4.1-0.2,6.2-0.2c11.8,0,23.2,1.7,34,5.2c32.4,10.2,60.4,35.9,81.1,74.1c17,31.5,28.4,71,31.2,108.3
		c1.7,23,0,44.1-4.9,59.5c-0.8,2.5-3,4.1-5.6,4.2c-7.4,0.6-14.8,4-21,9.4c-5.2,4.6-9,10.2-10.9,16.2c-2.1,6.2-2,13.1,0.3,19.3
		c2.7,7.3,8.2,14.1,16.4,20.2c0.3,0.3,0.8,0.4,1.2,0.4h21.4c3.8,0,7.5,1.5,10.2,4.2c2.7,2.7,4.2,6.3,4.2,10.2v27.3l0,0.3
		c0,0.6,0.2,1.1,0.6,1.5c0.4,0.4,0.9,0.6,1.4,0.6h27.5c4.7,0,9.1,1.8,12.5,5.2c3.4,3.3,5.2,7.8,5.2,12.5v24.6c0,4.6-1.8,9-5,12.3
		c-0.1,0.1-0.1,0.1-0.2,0.2c-3.3,3.4-7.8,5.2-12.5,5.2h0H19.7z M15.5,496.1c0.1,0.1,0.1,0.2,0.2,0.3c1.1,1.1,2.5,1.6,4,1.6h340.1
		c1.5,0,2.9-0.6,4-1.6c0.1-0.1,0.1-0.2,0.2-0.2c0.9-1,1.5-2.4,1.5-3.8v-24.6c0-1.5-0.6-2.9-1.6-4c-1.1-1.1-2.5-1.7-4-1.7H19.7
		c-1.5,0-2.9,0.6-4,1.6c-1.1,1.1-1.7,2.6-1.7,4.1v24.6C14,493.7,14.5,495,15.5,496.1z M61.4,419.3c-0.1,0.3-0.2,0.6-0.2,0.9l0,27.3
		c0,0.7,0.3,1.3,0.8,1.7c0.4,0.4,1,0.6,1.6,0.6h252.3c0.6,0,1.3-0.3,1.7-0.7c0.4-0.4,0.7-1,0.7-1.7v-27.3c0-0.6-0.2-1.2-0.6-1.6
		c-0.3-0.4-0.8-0.7-1.3-0.8c-0.1,0-0.3,0-0.4,0H63.6c0,0-0.2,0-0.2,0c-0.4,0-0.9,0.2-1.2,0.4C61.8,418.6,61.6,418.9,61.4,419.3z
		 M155.6,205.4c2.2,0,4.3,1.2,5.3,3.2l1.3,2.6l0.1,0.2c0.1,0.1,0.1,0.2,0.2,0.3c7.3,13.8,12.1,23,8.6,35
		c-3.6,12.4-16.1,28.5-43.2,55.5c-40.3,40.3-36.5,84.8-33,102c0.2,0.9,1,1.6,2,1.6h174.8c0.8,0,1.5-0.4,1.8-1.1
		c0.3-0.7,0.2-1.5-0.2-2.1c-3.3-4.2-5.8-8.6-7.5-13.2c-3.2-8.8-3.4-18.1-0.4-27.1c2.6-8,7.6-15.4,14.4-21.4c6.8-6,14.7-10,22.9-11.7
		c0.7-0.2,1.4-0.7,1.5-1.5c3.4-13.5,4.4-30.9,3-50.2c-2.7-35.7-13.5-73.4-29.8-103.5c-19.1-35.4-44.8-59-74.2-68.3
		c-9.7-3.1-20-4.6-30.5-4.6c-2.6,0-5.3,0.1-8,0.3c-0.1,0-0.1,0-0.2,0c0,0-0.1,0-0.2,0c-0.1,0-0.3,0-0.4,0c-1.4,0-2.7-0.5-3.8-1.4
		c-10.1-8.3-18.5-13.5-26.4-16.2c-4.1-1.4-8-2.1-11.8-2.1c-1.2,0-2.4,0.1-3.6,0.2c-0.7,0.1-1.3,0.6-1.6,1.2c-0.3,0.7-0.2,1.4,0.3,2
		l17.9,22.3c0,0,0.1,0.1,0.1,0.1c1.9,2.4,1.6,5.9-0.6,8L33.6,211.3c-0.7,0.6-0.8,1.6-0.4,2.4l22.4,41.5c0.3,0.6,1,1.1,1.8,1.1
		c0.3,0,0.6-0.1,0.9-0.2l24.7-12.2c0.9-0.4,1.3-1.5,1-2.4l-3-8.8c-0.5-1.6-0.4-3.3,0.4-4.8c3.7-6.8,9.4-9.8,18.7-9.8
		c4.7,0,9.8,0.7,15.3,1.5c4.7,0.7,9.6,1.4,14.2,1.4c6.7,0,16-1.2,20.5-11.5c0-0.1,0.1-0.1,0.1-0.2c0.5-1.3,1.5-2.4,2.8-3
		C153.7,205.6,154.6,205.4,155.6,205.4z"/>
	<path class="st0" d="M375.9,59.8c-7.7,0-14.9-3-20.4-8.5c-5.4-5.4-8.5-12.8-8.5-20.4c0-7.7,3-15,8.5-20.4
		c5.4-5.4,12.8-8.5,20.4-8.5c7.8,0,15,3,20.5,8.5c5.4,5.4,8.5,12.8,8.4,20.4c0,7.7-3,15-8.4,20.5C390.9,56.8,383.7,59.8,375.9,59.8
		L375.9,59.8z M375.9,14c-4.5,0-8.8,1.8-12,5c-3.2,3.2-5,7.4-5,12c0,4.5,1.8,8.8,5,12c3.2,3.2,7.5,4.9,12,5c4.5,0,8.8-1.8,12-5
		c3.2-3.2,5-7.5,5-12c0-4.5-1.8-8.8-5-12C384.7,15.8,380.5,14,375.9,14L375.9,14z"/>
	<path class="st0" d="M455.7,324.2c-3.3,0-6-2.7-6-6v-88.4c0-1.1-0.9-2-2-2h-71.8c-3.3,0-6-2.7-6-6v-97.1c0-0.8-0.5-1.6-1.3-1.9
		c-0.2-0.1-0.4-0.1-0.7-0.1c-0.6,0-1.2,0.3-1.6,0.7l-16.7,20.7c-1.1,1.3-2.8,2.1-4.5,2.1c-1.4,0-2.8-0.5-3.8-1.4
		c-2.4-2.1-2.8-5.7-0.9-8.2l30.9-38.2c1.1-1.4,2.8-2.2,4.7-2.2c1.4,0,2.7,0.5,3.8,1.3c0.3,0.3,0.6,0.6,0.9,0.9
		c0.1,0.1,0.1,0.1,0.2,0.2l30.8,38c1,1.2,1.5,2.8,1.3,4.4c-0.2,1.6-0.9,3-2.2,4c-1.1,0.9-2.4,1.3-3.8,1.3c-1.8,0-3.5-0.8-4.7-2.2
		l-16.7-20.6c-0.4-0.5-0.9-0.7-1.6-0.7c-0.2,0-0.5,0-0.7,0.1c-0.8,0.3-1.3,1-1.3,1.9v89c0,1.1,0.9,2,2,2h71.8c3.3,0,6,2.7,6,6v96.4
		C461.7,321.5,459,324.2,455.7,324.2z"/>
	<path class="st0" d="M455.6,417.9c-7.6,0-15-3.1-20.4-8.5c-5.4-5.4-8.5-12.8-8.5-20.4c0-7.7,3-15,8.5-20.5
		c5.4-5.5,12.7-8.5,20.4-8.5c7.7,0,15,3,20.5,8.5c5.5,5.5,8.5,12.7,8.5,20.4c0,7.7-3,15-8.5,20.4c-5.4,5.4-12.8,8.5-20.4,8.5H455.6z
		 M455.7,372.1c-4.5,0-8.9,1.8-12,5c-3.2,3.1-5,7.5-4.9,11.9c0,4.5,1.8,8.8,5,12c3.2,3.2,7.4,5,11.9,5c4.5,0,8.8-1.8,12-5
		c3.2-3.1,5-7.5,4.9-12c0-4.5-1.8-8.8-5-11.9C464.5,373.9,460.2,372.1,455.7,372.1z"/>
	<path class="st0" d="M241.9,81.9c-1.6,0-3.1-0.6-4.2-1.7c-1.1-1.1-1.8-2.6-1.8-4.2s0.6-3.1,1.7-4.2l15.2-15.2
		c0.4-0.4,0.6-0.9,0.6-1.4s-0.2-1-0.6-1.4l-15.2-15.2c-2.3-2.3-2.3-6.1,0-8.5c1.1-1.1,2.6-1.8,4.2-1.8c1.6,0,3.1,0.6,4.2,1.8
		l15.2,15.2c0.4,0.4,0.9,0.6,1.4,0.6s1-0.2,1.4-0.6L279.3,30c1.1-1.1,2.6-1.8,4.2-1.8c1.6,0,3.1,0.6,4.2,1.8c2.3,2.3,2.3,6.1,0,8.5
		l-15.2,15.2c-0.4,0.4-0.6,0.9-0.6,1.4s0.2,1,0.6,1.4l15.2,15.2c1.1,1.1,1.8,2.6,1.8,4.2c0,1.6-0.6,3.1-1.8,4.2
		c-1.1,1.1-2.6,1.8-4.2,1.8c-1.6,0-3.1-0.6-4.2-1.8l-15.2-15.2c-0.4-0.4-0.9-0.6-1.4-0.6s-1,0.2-1.4,0.6l-15.2,15.2
		C245,81.2,243.5,81.9,241.9,81.9z"/>
	<path class="st0" d="M462.3,154.9c-1.6,0-3.1-0.6-4.2-1.7c-1.1-1.1-1.8-2.6-1.8-4.2s0.6-3.1,1.7-4.2l15.2-15.2
		c0.4-0.4,0.6-0.9,0.6-1.4s-0.2-1-0.6-1.4l-15.2-15.2c-1.1-1.1-1.8-2.6-1.8-4.2c0-1.6,0.6-3.1,1.7-4.2c1.1-1.1,2.7-1.8,4.3-1.8
		c1.6,0,3.1,0.6,4.2,1.7l15.2,15.2c0.4,0.4,0.9,0.6,1.4,0.6s1-0.2,1.4-0.6l15.2-15.2c1.1-1.1,2.6-1.8,4.2-1.8c1.6,0,3.1,0.6,4.2,1.8
		c1.1,1.1,1.8,2.6,1.8,4.2s-0.6,3.1-1.8,4.2l-15.2,15.2c-0.4,0.4-0.6,0.9-0.6,1.4s0.2,1,0.6,1.4l15.2,15.2c1.1,1.1,1.8,2.6,1.8,4.2
		s-0.6,3.1-1.8,4.2c-1.1,1.1-2.6,1.8-4.2,1.8c-1.6,0-3.1-0.6-4.2-1.8l-15.2-15.2c-0.4-0.4-0.9-0.6-1.4-0.6s-1,0.2-1.4,0.6
		l-15.2,15.2C465.4,154.2,463.9,154.9,462.3,154.9z"/>
	<path class="st0" d="M275.1,304.3c-1.6,0-3.1-0.6-4.2-1.8c-1.1-1.1-1.7-2.6-1.7-4.2c0.3-38.8-6.8-73.4-21.3-102.8
		c-14.5-29.4-36-52-59-62c-3-1.3-4.4-4.9-3.1-7.9c1-2.2,3.1-3.6,5.5-3.6c0.8,0,1.6,0.2,2.4,0.5c25.6,11.1,49.3,35.8,65,67.6
		c15.3,31,22.8,67.4,22.5,108.2C281.1,301.6,278.4,304.3,275.1,304.3L275.1,304.3z"/>
</g>
</svg>
