<?xml version="1.0" encoding="utf-8"?>
<!-- Generator: Adobe Illustrator 24.3.0, SVG Export Plug-In . SVG Version: 6.00 Build 0)  -->
<svg version="1.1" id="Layer_1" xmlns="http://www.w3.org/2000/svg" xmlns:xlink="http://www.w3.org/1999/xlink" x="0px" y="0px"
	 width="512px" height="512px" viewBox="0 0 512 512" style="enable-background:new 0 0 512 512;" xml:space="preserve">
<style type="text/css">
	.st0{fill:#F97015;}
</style>
<g>
	<path class="st0" d="M261.3,244.6c-1.6,0-3.2,0.6-4.4,1.8c-2.4,2.4-2.4,6.3,0,8.7c1.2,1.2,2.7,1.8,4.4,1.8c1.6,0,3.2-0.6,4.4-1.8
		c2.4-2.4,2.4-6.3,0-8.7C264.5,245.2,262.9,244.6,261.3,244.6z"/>
	<path class="st0" d="M354.5,113.7c-11.7,0-22.7,4.6-31,12.8c-17.1,17.1-17.1,44.9,0,62c8.3,8.3,19.3,12.8,31,12.8
		c11.7,0,22.7-4.6,31-12.8c17.1-17.1,17.1-44.9,0-62C377.2,118.2,366.2,113.7,354.5,113.7z M376.8,179.8c-5.9,5.9-13.9,9.2-22.3,9.2
		c-8.4,0-16.3-3.3-22.3-9.2c-12.3-12.3-12.3-32.3,0-44.6c6-6,13.9-9.2,22.3-9.2c8.4,0,16.3,3.3,22.3,9.2c6,6,9.2,13.9,9.2,22.3
		C386,165.9,382.7,173.8,376.8,179.8z"/>
	<path class="st0" d="M492,19.9c-1.1-1.1-2.7-1.8-4.3-1.8l-0.3,0c-2.1,0.1-52.3,2.1-112.1,23.2c-47.8,16.9-87.7,41-118.4,71.8
		c-7,7-13.7,14.3-20.1,21.8c-0.6,0.7-1.5,1.2-2.5,1.2c-0.6,0-1.2-0.2-1.7-0.5c-13-7.6-25.9-11.5-38.5-11.5c-10.2,0-20,2.5-29.3,7.5
		c-34.8,18.6-56.3,69.4-56.3,105.7c0,3.4,2.8,6.2,6.2,6.2c1.6,0,3.2-0.6,4.4-1.8c15-15,32.5-18.2,44.6-18.2c3.4,0,6.2,0.3,8,0.5
		c0.7,0.1,1.4,0.4,1.9,0.9l3.3,3.3c0.9,0.9,1.2,2.3,0.7,3.6c-6.4,15.3-11.6,30.6-15.4,45.3c-1.2,4.7-0.8,9.6,1,14.4
		c0.6,1.6-0.1,3.4-1.7,4.1c-8.8,4-17.2,10-24.5,17.3c-23.4,23.4-28.2,81.3-28.4,83.8c-0.1,1.6,0.4,3.2,1.5,4.5
		c1.1,1.3,2.6,2,4.2,2.1c0.2,0,0.3,0,0.5,0s0.3,0,0.5,0c2.5-0.2,60.4-5,83.8-28.4c7.3-7.3,13.2-15.7,17.3-24.5
		c0.5-1.2,1.7-1.9,3-1.9c0.4,0,0.8,0.1,1.2,0.2c2.9,1.1,5.8,1.7,8.8,1.7c1.9,0,3.8-0.2,5.6-0.7c14.7-3.8,30-9,45.3-15.4
		c0.4-0.2,0.8-0.3,1.3-0.3c0.9,0,1.7,0.3,2.3,1l3.3,3.3c0.5,0.5,0.8,1.2,0.9,1.9c1,7.2,2.5,32.5-17.7,52.6c-1.2,1.2-1.8,2.7-1.8,4.4
		c0,1.6,0.6,3.2,1.8,4.4c1.2,1.2,2.7,1.8,4.4,1.8c36.3,0,87.1-21.5,105.7-56.3c7.8-14.6,13.4-38.1-4-67.8c-0.8-1.4-0.5-3.1,0.7-4.1
		c7.5-6.3,14.9-13.1,21.8-20.1c30.8-30.8,54.9-70.6,71.8-118.4c21.2-59.9,23.2-110,23.2-112.1C493.9,22.8,493.3,21.2,492,19.9z
		 M177.2,212.6c-0.5-0.1-5.6-1.2-13.4-1.2c-8.9,0-22.4,1.5-35.9,8.7c-0.5,0.2-1,0.4-1.5,0.4c-0.7,0-1.4-0.2-2-0.7
		c-1-0.8-1.5-2-1.2-3.3c5.6-27.1,22.5-60.5,47.6-73.9c7.5-4,15.4-6,23.5-6c9.6,0,19.6,2.8,29.8,8.4c0.8,0.5,1.4,1.2,1.6,2.2
		c0.2,0.9,0,1.9-0.6,2.6c-15.1,19.9-28.3,41.4-39.2,64c-0.4,0.8-1.1,1.4-2,1.7c-0.3,0.1-0.6,0.1-0.9,0.1c-0.6,0-1.2-0.2-1.7-0.5
		c-0.4-0.2-0.6-0.5-0.8-0.6C180,214.1,178.9,213,177.2,212.6z M206.9,341c-3.3,9-9,17.7-16.6,25.3c-14.9,14.9-50,21.4-64.4,23.5
		c-0.2,0-0.3,0-0.5,0c-0.9,0-1.7-0.3-2.3-1c-0.7-0.7-1.1-1.8-0.9-2.8c2.1-14.4,8.6-49.4,23.5-64.4c7.6-7.6,16.3-13.3,25.3-16.6
		c0.4-0.1,0.7-0.2,1.1-0.2c0.9,0,1.7,0.3,2.3,1l31.7,31.7C207,338.4,207.3,339.8,206.9,341z M270.1,323.6c-0.2,1.1-1,2-2,2.4
		c-12.3,4.9-24.5,8.9-36.4,11.9c-0.8,0.2-1.7,0.3-2.5,0.3c-3.1,0-6.3-1.4-8.8-3.8l-42.8-42.8c-3.2-3.2-4.5-7.5-3.5-11.3
		c3-11.8,7-24.1,11.9-36.4c0.4-1,1.3-1.8,2.4-2c0.2,0,0.4-0.1,0.7-0.1c0.9,0,1.7,0.3,2.3,1l77.9,77.9
		C270,321.5,270.3,322.6,270.1,323.6z M369.4,341.3c-13.4,25.1-46.8,41.9-73.9,47.6c-0.2,0-0.4,0.1-0.7,0.1c-1,0-2-0.5-2.6-1.3
		c-0.8-1-0.9-2.4-0.3-3.5c8.9-16.7,10.4-37.5,7.4-49.4c-0.4-1.7-1.4-2.6-1.8-3c-0.2-0.2-0.4-0.4-0.7-0.8c-0.5-0.8-0.6-1.7-0.4-2.6
		c0.3-0.9,0.9-1.6,1.7-2c22.5-10.9,44-24.1,64-39.2c0.6-0.4,1.3-0.7,2-0.7c0.2,0,0.5,0,0.7,0.1c0.9,0.2,1.7,0.8,2.2,1.6
		C377.4,306.9,378.2,324.8,369.4,341.3z M456.9,138.2c-16.2,43.6-38.6,80-66.8,108.2c-8.7,8.7-17.9,16.9-27.4,24.6
		c-23.1,18.6-48.6,34.4-75.8,47c-0.4,0.2-0.9,0.3-1.4,0.3c-0.9,0-1.7-0.3-2.3-1l-88.6-88.6c-1-1-1.2-2.4-0.7-3.7
		c12.6-27.2,28.4-52.7,47-75.8c7.8-9.6,16-18.9,24.6-27.4c28.2-28.2,64.6-50.7,108.2-66.8c0.4-0.1,0.7-0.2,1.1-0.2
		c0.9,0,1.7,0.3,2.3,1l78.9,78.9C457.1,135.6,457.4,137,456.9,138.2z M463.8,118.1c-0.3,1.1-1.2,1.9-2.3,2.2
		c-0.3,0.1-0.5,0.1-0.8,0.1c-0.9,0-1.7-0.3-2.3-1l-65.8-65.8c-0.8-0.8-1.1-2-0.9-3.1c0.3-1.1,1.1-2,2.2-2.3
		c36.2-11.3,67.7-15.4,83.3-16.9c0.1,0,0.2,0,0.3,0c0.9,0,1.7,0.3,2.3,1c0.7,0.7,1,1.6,0.9,2.6C479.2,50.4,475,81.9,463.8,118.1z"/>
	<path class="st0" d="M28.7,412.1l63.8-63.8c2.4-2.4,2.4-6.3,0-8.7c-1.2-1.2-2.7-1.8-4.4-1.8c-1.6,0-3.2,0.6-4.4,1.8l-63.8,63.8
		c-2.4,2.4-2.4,6.3,0,8.7c1.2,1.2,2.7,1.8,4.4,1.8C25.9,413.9,27.5,413.3,28.7,412.1z"/>
	<path class="st0" d="M74.8,310.2c1.6,0,3.2-0.6,4.4-1.8l26.6-26.6c1.2-1.2,1.8-2.7,1.8-4.4c0-1.6-0.6-3.2-1.8-4.4
		c-1.2-1.2-2.7-1.8-4.4-1.8s-3.2,0.6-4.4,1.8l-26.6,26.6c-1.2,1.2-1.8,2.7-1.8,4.4c0,1.6,0.6,3.2,1.8,4.4
		C71.6,309.5,73.1,310.2,74.8,310.2z"/>
	<path class="st0" d="M97,419.5c-1.2-1.2-2.7-1.8-4.4-1.8c-1.6,0-3.2,0.6-4.4,1.8l-63.8,63.8c-1.2,1.2-1.8,2.7-1.8,4.4
		c0,1.6,0.6,3.2,1.8,4.4s2.7,1.8,4.4,1.8c1.6,0,3.2-0.6,4.4-1.8L97,428.3c1.2-1.2,1.8-2.7,1.8-4.4C98.8,422.3,98.2,420.7,97,419.5z"
		/>
	<path class="st0" d="M168,417.7c-1.6,0-3.2,0.6-4.4,1.8l-63.8,63.8c-1.2,1.2-1.8,2.7-1.8,4.4c0,1.6,0.6,3.2,1.8,4.4
		s2.7,1.8,4.4,1.8c1.6,0,3.2-0.6,4.4-1.8l63.8-63.8c1.2-1.2,1.8-2.7,1.8-4.4c0-1.6-0.6-3.2-1.8-4.4
		C171.2,418.4,169.7,417.7,168,417.7z"/>
	<path class="st0" d="M301.2,204.6c-1.6,0-3.2,0.6-4.4,1.8l-13.3,13.3c-2.4,2.4-2.4,6.3,0,8.7c1.2,1.2,2.7,1.8,4.4,1.8
		s3.2-0.6,4.4-1.8l13.3-13.3c2.4-2.4,2.4-6.3,0-8.7C304.4,205.3,302.9,204.6,301.2,204.6z"/>
	<path class="st0" d="M234.6,404.4c-1.6,0-3.2,0.6-4.4,1.8l-26.6,26.6c-1.2,1.2-1.8,2.7-1.8,4.4c0,1.6,0.6,3.2,1.8,4.4
		c1.2,1.2,2.7,1.8,4.4,1.8c1.6,0,3.2-0.6,4.4-1.8l26.6-26.6c1.2-1.2,1.8-2.7,1.8-4.4c0-1.6-0.6-3.2-1.8-4.4
		C237.8,405.1,236.3,404.4,234.6,404.4z"/>
</g>
</svg>
