<?xml version="1.0" encoding="utf-8"?>
<!-- Generator: Adobe Illustrator 24.3.0, SVG Export Plug-In . SVG Version: 6.00 Build 0)  -->
<svg version="1.1" id="Layer_1" xmlns="http://www.w3.org/2000/svg" xmlns:xlink="http://www.w3.org/1999/xlink" x="0px" y="0px"
	 width="512px" height="512px" viewBox="0 0 512 512" style="enable-background:new 0 0 512 512;" xml:space="preserve">
<style type="text/css">
	.st0{fill:#F97015;}
</style>
<g>
	<path class="st0" d="M65.9,301.9c15.5,0,28-12.6,28-28c0-2-0.2-4.1-0.7-6c-0.2-0.9,0.2-1.8,1-2.2l43.1-21.6
		c0.3-0.1,0.6-0.2,0.9-0.2c0.6,0,1.1,0.2,1.5,0.7c5.3,6.2,13.1,9.7,21.2,9.7c15.5,0,28-12.6,28-28c0-5.1-1.4-10-4-14.4
		c-0.5-0.8-0.3-1.8,0.3-2.4l54-54.1c0.4-0.4,0.9-0.6,1.4-0.6c0.3,0,0.7,0.1,1,0.3c4.3,2.6,9.3,4,14.3,4c8.1,0,15.9-3.6,21.2-9.7
		c0.4-0.4,0.9-0.7,1.5-0.7c0.3,0,0.6,0.1,0.9,0.2l43.1,21.6c0.8,0.4,1.2,1.3,1,2.2c-0.4,2-0.7,4-0.7,6c0,15.5,12.6,28,28,28
		c15.5,0,28-12.6,28-28c0-7-2.6-13.7-7.3-18.8c-0.6-0.7-0.7-1.7-0.2-2.4l62.8-94.4c0.4-0.6,1-0.9,1.6-0.9c0.2,0,0.4,0,0.7,0.1
		c3,1.1,6.2,1.6,9.4,1.6c15.5,0,28-12.6,28-28s-12.6-28-28-28c-15.5,0-28,12.6-28,28c0,7,2.6,13.7,7.3,18.8c0.6,0.7,0.7,1.7,0.2,2.4
		l-62.8,94.4c-0.4,0.6-1,0.9-1.6,0.9c-0.2,0-0.4,0-0.7-0.1c-3-1.1-6.2-1.6-9.4-1.6c-8.1,0-15.9,3.6-21.2,9.7
		c-0.4,0.4-0.9,0.7-1.5,0.7c-0.3,0-0.6-0.1-0.9-0.2l-43.1-21.6c-0.8-0.4-1.2-1.3-1-2.2c0.4-2,0.7-4,0.7-6c0-15.5-12.6-28-28-28
		c-15.5,0-28,12.6-28,28c0,5.1,1.4,10,4,14.4c0.5,0.8,0.3,1.8-0.3,2.4l-54,54.1c-0.4,0.4-0.9,0.6-1.4,0.6c-0.3,0-0.7-0.1-1-0.3
		c-4.3-2.6-9.3-4-14.3-4c-15.5,0-28,12.6-28,28c0,2,0.2,4.1,0.7,6c0.2,0.9-0.2,1.8-1,2.2l-43.1,21.6c-0.3,0.1-0.6,0.2-0.9,0.2
		c-0.6,0-1.1-0.2-1.5-0.7c-5.3-6.2-13.1-9.7-21.2-9.7c-15.5,0-28,12.6-28,28S50.4,301.9,65.9,301.9z M446.1,18.6
		c9.5,0,17.3,7.8,17.3,17.3s-7.8,17.3-17.3,17.3c-9.5,0-17.3-7.8-17.3-17.3S436.6,18.6,446.1,18.6z M351,161.4
		c9.5,0,17.3,7.8,17.3,17.3S360.6,196,351,196c-9.5,0-17.3-7.8-17.3-17.3S341.5,161.4,351,161.4z M256,113.8
		c9.5,0,17.3,7.8,17.3,17.3c0,9.5-7.8,17.3-17.3,17.3c-9.5,0-17.3-7.8-17.3-17.3C238.7,121.6,246.5,113.8,256,113.8z M160.9,209
		c9.5,0,17.3,7.8,17.3,17.3c0,9.5-7.8,17.3-17.3,17.3c-9.5,0-17.3-7.8-17.3-17.3C143.7,216.8,151.4,209,160.9,209z M65.9,256.6
		c9.5,0,17.3,7.8,17.3,17.3c0,9.5-7.8,17.3-17.3,17.3c-9.5,0-17.3-7.8-17.3-17.3C48.6,264.4,56.4,256.6,65.9,256.6z"/>
	<path class="st0" d="M493.1,493.4h-9.1c-1.1,0-2-0.9-2-2V125.2c0-6.3-5.2-11.5-11.5-11.5h-49c-6.3,0-11.5,5.2-11.5,11.5v366.3
		c0,1.1-0.9,2-2,2H389c-1.1,0-2-0.9-2-2V268.7c0-6.3-5.2-11.5-11.5-11.5h-49c-6.3,0-11.5,5.2-11.5,11.5v222.8c0,1.1-0.9,2-2,2H294
		c-1.1,0-2-0.9-2-2V220.7c0-6.3-5.2-11.5-11.5-11.5h-49c-6.3,0-11.5,5.2-11.5,11.5v270.8c0,1.1-0.9,2-2,2h-19.1c-1.1,0-2-0.9-2-2
		V316.3c0-6.3-5.2-11.5-11.5-11.5h-49c-6.3,0-11.5,5.2-11.5,11.5v175.2c0,1.1-0.9,2-2,2h-19.1c-1.1,0-2-0.9-2-2V363.9
		c0-6.3-5.2-11.5-11.5-11.5h-49c-6.3,0-11.5,5.2-11.5,11.5v127.6c0,1.1-0.9,2-2,2h-9.1c-3,0-5.4,2.4-5.4,5.4c0,3,2.4,5.4,5.4,5.4
		h474.3c3,0,5.4-2.4,5.4-5.4C498.5,495.8,496.1,493.4,493.1,493.4z M91.2,491.5c0,1.1-0.9,2-2,2H42.6c-1.1,0-2-0.9-2-2V365.1
		c0-1.1,0.9-2,2-2h46.6c1.1,0,2,0.9,2,2V491.5z M186.2,491.5c0,1.1-0.9,2-2,2h-46.6c-1.1,0-2-0.9-2-2v-174c0-1.1,0.9-2,2-2h46.6
		c1.1,0,2,0.9,2,2V491.5z M281.3,491.5c0,1.1-0.9,2-2,2h-46.6c-1.1,0-2-0.9-2-2V221.9c0-1.1,0.9-2,2-2h46.6c1.1,0,2,0.9,2,2V491.5z
		 M376.3,491.5c0,1.1-0.9,2-2,2h-46.6c-1.1,0-2-0.9-2-2V269.9c0-1.1,0.9-2,2-2h46.6c1.1,0,2,0.9,2,2V491.5z M471.4,491.5
		c0,1.1-0.9,2-2,2h-46.6c-1.1,0-2-0.9-2-2V126.4c0-1.1,0.9-2,2-2h46.6c1.1,0,2,0.9,2,2V491.5z"/>
</g>
</svg>
