<svg xmlns="http://www.w3.org/2000/svg" width="100%" viewBox="0 0 75 32" fill="none" class="logo_img u-max-width-10ch"><g clip-path="url(#clip0_2393_17774)"><mask id="mask0_2393_17774" style="mask-type:luminance" maskUnits="userSpaceOnUse" x="0" y="0" width="75" height="32"><path d="M74.6266 0.699951H0.0390625V31.3H74.6266V0.699951Z" fill="currentColor"></path></mask><g><path d="M62.0753 10.813H61.459V21.9847H62.0753V10.813Z" fill="currentColor"></path><path d="M70.6956 21.3792C70.6994 21.3713 70.7037 21.3641 70.709 21.3576L73.6786 15.1328H72.9868L70.8094 19.8345C70.7903 19.8756 70.7492 19.9021 70.7037 19.9021C70.6583 19.9021 70.6172 19.8759 70.5976 19.8345L68.4207 15.1328H67.7217L70.3719 20.6755C70.3872 20.7072 70.3872 20.7443 70.3719 20.7759L68.5464 24.6061H69.1474L70.6947 21.3792H70.6956Z" fill="currentColor"></path><path d="M46.4824 19.3028V15.1328H45.8658V19.3486C45.8658 19.9302 45.651 20.4353 45.2276 20.8492C44.8091 21.2585 44.3043 21.4661 43.7275 21.4661C43.1088 21.4661 42.5829 21.2561 42.1644 20.8422C41.741 20.4329 41.5265 19.9305 41.5265 19.3488V15.1331H40.9102V19.4049C40.924 20.1729 41.1867 20.8184 41.6912 21.3227C42.1955 21.8269 42.8832 22.0829 43.7348 22.0829C44.5353 22.0829 45.1971 21.8272 45.7014 21.3227C46.1834 20.8406 46.4448 20.23 46.4791 19.5063C46.444 19.4857 46.4204 19.4473 46.4212 19.4035C46.422 19.3599 46.4464 19.3223 46.4824 19.3028Z" fill="currentColor"></path><path d="M35.294 21.9845V17.3981C35.2802 16.6301 35.0175 15.9846 34.5129 15.4803C34.0087 14.976 33.3448 14.7201 32.5392 14.7201C31.8809 14.7201 31.2985 14.9246 30.8077 15.3277C30.7863 15.3453 30.7604 15.3543 30.7338 15.3543C30.7171 15.3543 30.7 15.3504 30.6841 15.3432C30.6432 15.3239 30.6173 15.2828 30.6173 15.2379V10.8125H30.001V21.9842H30.6173V16.5573C30.6173 16.5397 30.6213 16.5224 30.6289 16.5067C30.7217 16.3144 30.8594 16.1263 31.0377 15.9475C31.4578 15.5414 31.9623 15.3364 32.5392 15.3364C33.1159 15.3364 33.6205 15.5463 34.0395 15.9602C34.4629 16.3696 34.6777 16.8719 34.6777 17.4538V21.9842L35.294 21.9845Z" fill="currentColor"></path><path d="M54.1384 21.9845V15.8658C54.1384 15.8014 54.1905 15.7495 54.255 15.7495H55.5364V15.133H54.255C54.1905 15.133 54.1384 15.0807 54.1384 15.0166V12.2112H53.5221V15.0166C53.5221 15.081 53.4699 15.133 53.4054 15.133H52.124V15.7495H53.4054C53.4699 15.7495 53.5221 15.8017 53.5221 15.8658V21.9845H54.1384Z" fill="currentColor"></path><path d="M0.121723 13.2932L0.0400977 2.69999C0.0317146 1.59805 0.922752 0.699951 2.02492 0.699951C6.22709 0.699951 9.6335 4.10637 9.6335 8.30855V16.4437C10.7818 15.7965 13.4463 14.284 14.9166 13.4121C16.7547 12.3223 18.5225 13.2356 20.9298 14.9923C22.8557 16.3976 24.8279 22.2389 24.9689 23.2963V28.9924C24.9689 30.2545 23.9459 31.2774 22.6838 31.2774C18.6456 31.2774 15.372 28.0039 15.372 23.9656V23.0051C14.5081 23.4796 11.921 24.681 10.1008 25.8013C7.82537 27.2015 6.90852 26.2875 4.37065 24.559C2.34017 23.1763 0.209305 17.701 0.121723 16.6436V13.2932Z" fill="currentColor"></path><g style="mix-blend-mode:luminosity" opacity="0.45"><path d="M22.4022 18.9106C24.3281 20.3159 24.828 22.2387 24.969 23.2961V28.9922C24.969 30.2544 23.946 31.2773 22.6839 31.2773C18.6456 31.2773 15.3721 28.0037 15.3721 23.9654V23.0049" fill="currentColor"></path></g><g style="mix-blend-mode:luminosity" opacity="0.5"><path d="M1.98653 21.1577C-0.0439541 19.7749 0.209305 17.701 0.121723 16.6436V13.2934L0.0400977 2.69999C0.0317146 1.59805 0.922752 0.699951 2.02492 0.699951C6.22709 0.699951 9.6335 4.10637 9.6335 8.30855V16.4437" fill="currentColor"></path></g><path fill-rule="evenodd" clip-rule="evenodd" d="M14.8334 23.9901L14.6792 24.0848L14.6712 24.0702L11.7014 25.8633C6.21549 29.1756 0.208308 25.2355 0.0966797 18.4376L0.120726 13.4426C0.120726 20.7494 4.15103 19.3772 9.01481 16.3728C9.41013 16.1285 9.81539 15.8799 10.2238 15.6293L10.3777 15.5346L10.3856 15.5492L13.5174 13.6584C18.9757 10.3629 24.8521 14.6028 24.9599 21.182V26.1792C24.9599 18.8724 20.9056 20.2425 16.0419 23.2469C15.6465 23.4911 15.2415 23.7398 14.8334 23.9901Z" fill="currentColor"></path></g></g><defs><clipPath id="clip0_2393_17774"><rect width="74.5875" height="30.6" fill="currentColor" transform="translate(0.0390625 0.699951)"></rect></clipPath></defs></svg>