<svg xmlns="http://www.w3.org/2000/svg" width="100%" viewBox="0 0 121 26" fill="none" class="logo_img"><g clip-path="url(#clip0_2393_17734)"><path d="M33.047 19.593C32.3993 19.5528 31.6303 19.5326 30.7398 19.5326H30.416V6.12071C30.8343 6.15421 31.1312 6.17094 31.3065 6.17094H31.7213C32.2543 6.17094 32.6962 6.14416 33.047 6.09058V11.4453H37.803V6.12071C38.363 6.15421 38.906 6.17094 39.4322 6.17094C39.9652 6.17094 40.299 6.14416 40.434 6.09058V19.593C40.1102 19.5528 39.4693 19.5326 38.5114 19.5326H37.803V13.8564H33.047V19.593Z" fill="currentColor"></path><path d="M43.0957 14.3387C43.0957 13.6019 43.2205 12.8987 43.47 12.2289C43.7265 11.5525 44.0907 10.9631 44.563 10.4608C45.5952 9.37575 46.9342 8.83325 48.5804 8.83325C50.2195 8.83325 51.5215 9.34562 52.4864 10.3704C53.4105 11.3482 53.8727 12.6174 53.8727 14.1779C53.8727 15.7385 53.397 17.0311 52.4459 18.0558C51.4407 19.1408 50.1084 19.6833 48.4487 19.6833C46.7352 19.6833 45.3927 19.1508 44.4214 18.086C43.5375 17.1148 43.0957 15.8657 43.0957 14.3387ZM45.5547 14.2784C45.5547 14.7004 45.6255 15.1089 45.7672 15.5041C45.9089 15.8992 46.1112 16.2374 46.3744 16.5187C46.9342 17.1282 47.6695 17.433 48.5804 17.433C49.4235 17.433 50.088 17.1349 50.5737 16.5388C51.046 15.9628 51.2822 15.2127 51.2822 14.2884C51.2822 13.3508 51.0392 12.594 50.5535 12.018C50.034 11.4018 49.3224 11.0937 48.4184 11.0937C47.5009 11.0937 46.7825 11.4219 46.263 12.0782C45.7907 12.681 45.5547 13.4144 45.5547 14.2784Z" fill="currentColor"></path><path d="M58.6178 19.3217V22.2753C58.6178 22.8513 58.6313 23.2263 58.6583 23.4005H56.1387V9.03419H58.6178V9.6872C59.4342 9.1179 60.2167 8.83325 60.9655 8.83325C61.7143 8.83325 62.3788 8.93707 62.959 9.14469C63.5392 9.35232 64.0485 9.6738 64.487 10.1091C65.4517 11.0535 65.934 12.3997 65.934 14.1478C65.934 15.3065 65.6608 16.3413 65.1143 17.2522C64.6488 18.0223 64.0047 18.6385 63.1815 19.1007C62.453 19.5092 61.6637 19.7135 60.8137 19.7135C59.9637 19.7135 59.2317 19.5828 58.6178 19.3217ZM58.6178 16.79C59.1305 17.2187 59.795 17.433 60.6113 17.433C61.947 17.433 62.8105 16.7933 63.2018 15.5141C63.3367 15.0788 63.4042 14.6133 63.4042 14.1177C63.4042 13.6153 63.357 13.2168 63.2625 12.9221C63.1682 12.6207 63.0433 12.3629 62.8882 12.1486C62.7397 11.9275 62.571 11.7467 62.3822 11.6061C62.1933 11.4587 62.001 11.3415 61.8053 11.2544C61.4613 11.1004 61.1072 11.0234 60.7428 11.0234C60.3785 11.0234 60.0008 11.1071 59.6095 11.2745C59.2182 11.442 58.8877 11.6663 58.6178 11.9476V16.79Z" fill="currentColor"></path><path d="M71.6317 19.6833C69.7292 19.6833 68.2957 19.3385 67.3311 18.6487C67.3446 18.4477 67.3647 18.22 67.3917 17.9655L67.4827 17.2422C67.5367 16.7666 67.5706 16.4719 67.5841 16.358C67.5974 16.2374 67.6076 16.1738 67.6144 16.1671C67.6211 16.1537 67.6751 16.2073 67.7762 16.3279C67.8774 16.4417 68.0697 16.5824 68.3531 16.7498C68.6364 16.9173 68.9636 17.0646 69.3346 17.1918C70.1374 17.4665 70.9739 17.6038 71.8442 17.6038C73.0112 17.6038 73.5947 17.2187 73.5947 16.4484C73.5947 16.2006 73.4834 16.0164 73.2609 15.8959C72.8629 15.6949 72.2759 15.5442 71.5001 15.4438C70.7311 15.3366 70.1002 15.1826 69.6079 14.9816C69.1154 14.7807 68.7139 14.5396 68.4036 14.2583C67.8302 13.7292 67.5436 13.036 67.5436 12.1787C67.5436 11.1339 67.9482 10.3134 68.7577 9.71734C69.5606 9.12795 70.6704 8.83325 72.0871 8.83325C73.4902 8.83325 74.6877 9.2284 75.6794 10.0187C75.6321 10.1929 75.5816 10.3603 75.5276 10.5211C75.3724 10.9631 75.2577 11.2812 75.1836 11.4755L74.9507 12.0682C74.9372 12.1218 74.9271 12.1486 74.9204 12.1486C74.9069 12.1486 74.8529 12.0782 74.7585 11.9376C74.3334 11.4487 73.6724 11.1272 72.7751 10.9731C72.4986 10.9196 72.2152 10.8928 71.9251 10.8928C70.6974 10.8928 70.0834 11.2611 70.0834 11.9979C70.0834 12.2524 70.2116 12.4466 70.4679 12.5806C70.9469 12.8351 71.6012 13.0226 72.431 13.1432C73.2675 13.2637 73.9017 13.4278 74.3336 13.6354C74.7652 13.8364 75.1127 14.0808 75.3757 14.3688C75.8614 14.8912 76.1044 15.5844 76.1044 16.4484C76.1044 17.3928 75.7232 18.1597 74.9609 18.749C74.1649 19.372 73.0551 19.6833 71.6317 19.6833Z" fill="currentColor"></path><path d="M83.1462 17.3227C84.0165 17.3227 84.6135 17.0983 84.9373 16.6495H85.0183L85.0487 18.9803C84.718 19.3085 84.1042 19.5262 83.207 19.6333C82.964 19.6668 82.6605 19.6835 82.2962 19.6835C81.9387 19.6835 81.5473 19.6165 81.1223 19.4827C80.7042 19.3487 80.3467 19.131 80.0498 18.8297C79.4358 18.2067 79.1288 17.2322 79.1288 15.9061V11.345H77.6008C77.5942 11.1508 77.5908 10.9532 77.5908 10.7523V9.20516C77.5908 9.09129 77.5942 9.03438 77.6008 9.03438H79.1288V6.17114H81.6082V9.03438H84.3908V11.345H81.6082V15.444C81.6082 16.4955 81.9015 17.0949 82.4885 17.2423C82.6773 17.2958 82.8967 17.3227 83.1462 17.3227Z" fill="currentColor"></path><path d="M94.0954 18.9098C93.1374 19.4255 92.2706 19.6833 91.4947 19.6833C90.7189 19.6833 90.0546 19.613 89.5012 19.4723C88.9481 19.325 88.4792 19.1107 88.0947 18.8295C87.3122 18.2602 86.9209 17.4363 86.9209 16.358C86.9209 15.3936 87.3999 14.5898 88.3579 13.9469C89.3967 13.2503 90.8067 12.902 92.5877 12.902L92.9924 12.9121C93.0734 12.9188 93.1644 12.9255 93.2656 12.9322C93.3669 12.9322 93.4579 12.9389 93.5389 12.9523C93.4849 11.8807 93.0194 11.2544 92.1424 11.0736C91.8524 11.0133 91.5421 10.9832 91.2114 10.9832C90.8876 10.9832 90.5672 11.0133 90.2501 11.0736C89.9397 11.1272 89.6362 11.2009 89.3394 11.2946C88.6851 11.5022 88.2162 11.74 87.9329 12.0079L87.9024 11.9878L87.5989 9.76757C88.7929 9.14469 90.0984 8.83325 91.5151 8.83325C93.7142 8.83325 95.1209 9.62022 95.7347 11.1942C95.9304 11.6965 96.0282 12.2624 96.0282 12.892V16.5288C96.0282 17.3057 96.3047 17.8348 96.8579 18.1162L95.0264 19.7838C94.6419 19.5828 94.3316 19.2915 94.0954 18.9098ZM93.5489 14.7606C93.3669 14.7271 93.1779 14.7104 92.9822 14.7104H92.5776C91.0866 14.7104 90.1387 15.0386 89.7341 15.6949C89.6126 15.8892 89.5519 16.0935 89.5519 16.3078C89.5519 16.5221 89.5891 16.713 89.6632 16.8804C89.7442 17.0412 89.8757 17.1752 90.0579 17.2823C90.4087 17.4832 90.9281 17.5837 91.6162 17.5837C92.3111 17.5837 92.9587 17.4195 93.5591 17.0914C93.5524 17.0177 93.5489 16.9407 93.5489 16.8603V14.7606Z" fill="currentColor"></path><path d="M107.464 18.5582C106.708 19.3083 105.525 19.6833 103.912 19.6833C102.347 19.6833 101.069 19.2112 100.077 18.2668C99.072 17.309 98.5693 16.0365 98.5693 14.4492C98.5693 12.8351 99.0652 11.5089 100.057 10.4708C101.109 9.3791 102.516 8.83325 104.276 8.83325C105.525 8.83325 106.57 9.1045 107.414 9.647L107.009 12.2189L106.938 12.2088C106.614 11.8204 106.273 11.5659 105.916 11.4453C105.336 11.2444 104.755 11.1439 104.175 11.1439C103.595 11.1439 103.14 11.2176 102.809 11.3649C102.479 11.5123 102.195 11.7166 101.959 11.9778C101.487 12.5136 101.251 13.2235 101.251 14.1076C101.251 15.6749 101.797 16.6996 102.89 17.1818C103.268 17.3425 103.666 17.423 104.084 17.423C104.509 17.423 104.877 17.3862 105.187 17.3125C105.504 17.2387 105.791 17.1383 106.047 17.011C106.594 16.7431 106.965 16.4317 107.161 16.0767L107.231 16.1068L107.464 18.5582Z" fill="currentColor"></path><path d="M112.209 18.2067C112.209 18.7827 112.232 19.2248 112.279 19.5328H109.729V5.1665H112.209V13.9671L116.833 9.03437H119.838L115.852 13.2036L118.128 16.2879C118.621 17.0648 118.992 17.634 119.241 17.9957L119.909 18.93C120.112 19.1913 120.28 19.3922 120.415 19.5328H118.816C118.223 19.5328 117.713 19.583 117.288 19.6835L114.131 15.1024L112.209 17.1318V18.2067Z" fill="currentColor"></path><path d="M12.75 25.4998C19.6536 25.4998 25.25 19.9033 25.25 12.9998C25.25 6.0962 19.6536 0.499756 12.75 0.499756C5.84644 0.499756 0.25 6.0962 0.25 12.9998C0.25 19.9033 5.84644 25.4998 12.75 25.4998Z" fill="currentColor"></path><path d="M15.21 9.91138C15.9219 9.91138 16.499 9.33425 16.499 8.62232C16.499 7.91039 15.9219 7.33325 15.21 7.33325C14.498 7.33325 13.9209 7.91039 13.9209 8.62232C13.9209 9.33425 14.498 9.91138 15.21 9.91138Z" fill="white"></path><path d="M11.1084 7.33325H8.99902V18.5833H11.1084V7.33325Z" fill="white"></path><path d="M16.2646 10.6145H14.1553V18.5833H16.2646V10.6145Z" fill="white"></path><path d="M9.70215 13.9739V16.0833H15.5615V13.9739H9.70215Z" fill="white"></path></g><defs><clipPath id="clip0_2393_17734"><rect width="120.167" height="25" fill="currentColor" transform="translate(0.25 0.499756)"></rect></clipPath></defs></svg>