<svg xmlns="http://www.w3.org/2000/svg" width="100%" viewBox="0 0 127 20" fill="none" class="logo_img u-max-width-16ch"><g clip-path="url(#clip0_40000115_14321)"><path fill-rule="evenodd" clip-rule="evenodd" d="M9.99166 2.54935C14.7351 2.54935 18.6888 5.90524 19.6137 10.3723L19.6149 10.3564C19.6314 10.125 19.6476 9.89867 19.6476 9.66158C19.6532 4.326 15.3272 0 9.99166 0C4.65608 0 0.330078 4.326 0.330078 9.66158C0.330078 9.8985 0.346999 10.1353 0.363919 10.3723C1.29454 5.90524 5.24829 2.54935 9.99166 2.54935ZM10.2596 18.2458C7.24209 18.2458 4.47277 17.1968 2.28439 15.4596L2.22801 15.4333C2.1495 15.3968 2.06945 15.3595 1.99674 15.3186C3.68879 18.1218 6.7514 19.9999 10.2652 19.9999C13.779 19.9999 16.8417 18.1218 18.5337 15.3186C18.4857 15.344 18.4378 15.3665 18.3899 15.3891C18.342 15.4117 18.294 15.4343 18.246 15.4596C16.052 17.2024 13.2883 18.2458 10.2708 18.2458H10.2596ZM89.7192 1.14492C84.8009 1.14492 81.3604 4.9069 81.3604 10.1241C81.3604 15.313 84.7784 19.1032 89.7192 19.1032C94.6601 19.1032 98.0776 15.3356 98.0776 10.1241C98.0776 4.91254 94.6376 1.14492 89.7192 1.14492ZM89.7192 3.16409C93.3117 3.16409 95.8843 6.13082 95.8843 10.1241C95.8843 14.1173 93.3117 17.084 89.7192 17.084C86.1267 17.084 83.5545 14.1173 83.5545 10.1241C83.5545 6.13082 86.1267 3.16409 89.7192 3.16409ZM44.1394 18.8551H46.2093V1.39313H43.2144L37.3768 11.9741L31.5111 1.39313H28.5443V18.8551H30.6143V3.85788L36.2262 14.2132H38.4992L44.1394 3.83532V18.8551ZM52.3972 13.9876H59.532L61.2522 18.8551H63.5478L57.2365 1.39313H54.6927L48.3814 18.8551H50.677L52.3972 13.9876ZM55.9618 3.9594L58.8327 12.0192H58.827H53.091L55.9618 3.9594ZM78.5681 1.39313V18.8551H76.3741V10.9983H67.9138V18.8551H65.7423V1.39313H67.9138V8.97917H76.3741V1.39313H78.5681ZM104.339 1.39313V13.2938C104.339 17.2871 102.365 18.4095 100.673 19.1088L100.047 19.357L98.9467 17.8116L99.4943 17.5353C101.039 16.7851 102.162 16.0858 102.162 13.0683V1.39313H104.333H104.339ZM110.25 18.8551V1.39313H108.129V18.8551H110.25ZM126.939 1.39313V18.8551H124.869L116.088 5.15511V18.8551H114.041V1.39313H116.11L124.893 15.0931V1.39313H126.939Z" fill="currentColor"></path><path fill-rule="evenodd" clip-rule="evenodd" d="M9.99166 2.54935C14.7351 2.54935 18.6888 5.90524 19.6137 10.3723L19.6149 10.3564C19.6314 10.125 19.6476 9.89867 19.6476 9.66158C19.6532 4.326 15.3272 0 9.99166 0C4.65608 0 0.330078 4.326 0.330078 9.66158C0.330078 9.8985 0.346999 10.1353 0.363919 10.3723C1.29454 5.90524 5.24829 2.54935 9.99166 2.54935ZM10.2596 18.2458C7.24209 18.2458 4.47277 17.1968 2.28439 15.4596L2.22801 15.4333C2.1495 15.3968 2.06945 15.3595 1.99674 15.3186C3.68879 18.1218 6.7514 19.9999 10.2652 19.9999C13.779 19.9999 16.8417 18.1218 18.5337 15.3186C18.4857 15.344 18.4378 15.3665 18.3899 15.3891C18.342 15.4117 18.294 15.4343 18.246 15.4596C16.052 17.2024 13.2883 18.2458 10.2708 18.2458H10.2596ZM89.7192 1.14492C84.8009 1.14492 81.3604 4.9069 81.3604 10.1241C81.3604 15.313 84.7784 19.1032 89.7192 19.1032C94.6601 19.1032 98.0776 15.3356 98.0776 10.1241C98.0776 4.91254 94.6376 1.14492 89.7192 1.14492ZM89.7192 3.16409C93.3117 3.16409 95.8843 6.13082 95.8843 10.1241C95.8843 14.1173 93.3117 17.084 89.7192 17.084C86.1267 17.084 83.5545 14.1173 83.5545 10.1241C83.5545 6.13082 86.1267 3.16409 89.7192 3.16409ZM44.1394 18.8551H46.2093V1.39313H43.2144L37.3768 11.9741L31.5111 1.39313H28.5443V18.8551H30.6143V3.85788L36.2262 14.2132H38.4992L44.1394 3.83532V18.8551ZM52.3972 13.9876H59.532L61.2522 18.8551H63.5478L57.2365 1.39313H54.6927L48.3814 18.8551H50.677L52.3972 13.9876ZM55.9618 3.9594L58.8327 12.0192H58.827H53.091L55.9618 3.9594ZM78.5681 1.39313V18.8551H76.3741V10.9983H67.9138V18.8551H65.7423V1.39313H67.9138V8.97917H76.3741V1.39313H78.5681ZM104.339 1.39313V13.2938C104.339 17.2871 102.365 18.4095 100.673 19.1088L100.047 19.357L98.9467 17.8116L99.4943 17.5353C101.039 16.7851 102.162 16.0858 102.162 13.0683V1.39313H104.333H104.339ZM110.25 18.8551V1.39313H108.129V18.8551H110.25ZM126.939 1.39313V18.8551H124.869L116.088 5.15511V18.8551H114.041V1.39313H116.11L124.893 15.0931V1.39313H126.939Z" fill="currentColor"></path></g><defs><clipPath id="clip0_40000115_14321"><rect width="126.667" height="20" fill="currentColor" transform="translate(0.330078)"></rect></clipPath></defs></svg>