<svg xmlns="http://www.w3.org/2000/svg" width="100%" viewBox="0 0 121 28" fill="none" class="logo_img"><g clip-path="url(#clip0_2393_17800)"><path d="M12.1204 14.2126C12.6564 15.0711 13.2605 15.8797 13.9237 16.6337C17.226 20.3721 22.0501 22.7296 27.4192 22.7296V19.7861C19.1157 19.7861 12.3566 13.0271 12.3566 4.71899H9.41309C9.41309 6.93569 9.81741 9.05697 10.5532 11.0193C10.9712 12.1413 11.5026 13.2087 12.1249 14.2081L12.1204 14.2126Z" fill="currentColor"></path><path d="M27.4231 16.6519V13.7084C22.4673 13.7084 18.4337 9.67476 18.4337 4.71899H15.4902C15.4902 11.2964 20.8411 16.6519 27.4231 16.6519Z" fill="currentColor"></path><path d="M10.845 15.5977C8.06511 18.2594 4.33581 19.7857 0.424805 19.7857V22.7292C4.98991 22.7292 9.35058 20.9849 12.6484 17.9415C11.9897 17.2101 11.3856 16.4244 10.845 15.5977Z" fill="currentColor"></path><path d="M9.26882 12.7177C8.79189 11.6412 8.40579 10.5101 8.12871 9.33813C6.55704 11.9545 3.69078 13.7079 0.424805 13.7079V16.6514C3.93153 16.6514 7.0885 15.1297 9.26882 12.7177Z" fill="currentColor"></path><path d="M10.5491 11.0193C10.172 11.6234 9.74505 12.1912 9.26808 12.7182C8.79112 11.6416 8.40501 10.5106 8.12793 9.33861C8.9456 7.98952 9.41346 6.40876 9.41346 4.71899C9.41346 6.93569 9.8177 9.05697 10.5535 11.0193H10.5491Z" fill="currentColor"></path><path d="M13.9309 16.633C13.5267 17.0918 13.0997 17.5324 12.6499 17.9412C11.9913 17.2098 11.3872 16.4241 10.8467 15.5974C11.3009 15.1658 11.7279 14.7025 12.1276 14.2119C12.6636 15.0704 13.2677 15.8789 13.9309 16.633Z" fill="currentColor"></path><path d="M40.3264 12.3645L35.8623 22.3768H38.2378L39.1226 20.2325H43.7701L44.6549 22.3768H47.0863L42.6102 12.3645H40.3224H40.3264ZM39.868 18.4707L41.4543 14.6364L43.0407 18.4707H39.864H39.868Z" fill="currentColor"></path><path d="M52.4653 12.3645H48.1328V22.3768H50.4485V19.6147H52.4653C55.1398 19.6147 56.8138 18.2276 56.8138 15.9956C56.8138 13.7635 55.1398 12.3645 52.4653 12.3645ZM52.3378 17.7294H50.4485V14.2537H52.3378C53.7527 14.2537 54.4702 14.8955 54.4702 15.9995C54.4702 17.1036 53.7567 17.7294 52.3378 17.7294Z" fill="currentColor"></path><path d="M62.7944 12.3645H58.4619V22.3768H60.7776V19.6147H62.7944C65.4689 19.6147 67.1429 18.2276 67.1429 15.9956C67.1429 13.7635 65.4689 12.3645 62.7944 12.3645ZM62.6669 17.7294H60.7776V14.2537H62.6669C64.0818 14.2537 64.7992 14.8955 64.7992 15.9995C64.7992 17.1036 64.0858 17.7294 62.6669 17.7294Z" fill="currentColor"></path><path d="M70.6428 15.1942C70.6428 14.5645 71.1729 14.0504 72.544 14.0504C73.4288 14.0504 74.3894 14.3094 75.3181 14.8356L76.0316 13.0778C75.1029 12.4919 73.8154 12.189 72.556 12.189C69.7101 12.189 68.335 13.6039 68.335 15.3059C68.335 19.0246 74.1543 17.7372 74.1543 19.6105C74.1543 20.2243 73.5962 20.6827 72.2251 20.6827C71.0254 20.6827 69.766 20.2522 68.9209 19.6384L68.1357 21.3842C69.0206 22.0697 70.6229 22.5441 72.2132 22.5441C75.075 22.5441 76.462 21.1131 76.462 19.4391C76.462 15.7642 70.6428 17.0357 70.6428 15.1903V15.1942Z" fill="currentColor"></path><path d="M76.7773 14.2537H79.9819V22.3768H82.2977V14.2537H85.5024V12.3645H76.7773V14.2537Z" fill="currentColor"></path><path d="M95.4256 15.9956C95.4256 13.7515 93.7516 12.3645 91.0778 12.3645H86.7451V22.3768H89.0604V19.5867H91.1934L93.1264 22.3768H95.6129L93.3694 19.1603C94.673 18.6023 95.4298 17.5022 95.4298 15.9995L95.4256 15.9956ZM90.9495 17.7413H89.0604V14.2498H90.9495C92.3645 14.2498 93.0825 14.8915 93.0825 15.9956C93.0825 17.0996 92.3645 17.7413 90.9495 17.7413Z" fill="currentColor"></path><path d="M100.402 12.3645L95.9375 22.3768H98.3135L99.1978 20.2325H103.845L104.73 22.3768H107.162L102.686 12.3645H100.398H100.402ZM99.9436 18.4707L101.53 14.6364L103.116 18.4707H99.9394H99.9436Z" fill="currentColor"></path><path d="M110.522 12.3645H108.206V22.3768H110.522V12.3645Z" fill="currentColor"></path><path d="M115.216 20.4875V12.3645H112.9V22.3768H120.238V20.4875H115.216Z" fill="currentColor"></path></g><defs><clipPath id="clip0_2393_17800"><rect width="119.813" height="27" fill="currentColor" transform="translate(0.424805 0.5)"></rect></clipPath></defs></svg>