<svg xmlns="http://www.w3.org/2000/svg" width="100%" viewBox="0 0 135 22" fill="none" class="logo_img u-max-width-16ch"><g clip-path="url(#clip0_2393_17817)"><path d="M133.192 7.38329H129.432C129.124 7.38329 128.928 7.57723 128.928 7.88242V20.4034C128.928 20.7086 129.124 20.9026 129.432 20.9026H133.192C133.501 20.9026 133.698 20.7086 133.698 20.4034V7.88242C133.698 7.57723 133.501 7.38329 133.192 7.38329ZM131.312 5.99452C132.883 5.99452 134.062 4.8037 134.062 3.25349C134.062 1.78601 132.883 0.595215 131.312 0.595215C129.741 0.595215 128.534 1.78601 128.534 3.25349C128.534 4.8037 129.741 5.99452 131.312 5.99452ZM115.027 14.1415C115.027 15.8668 116.211 17.0915 117.847 17.0915C119.485 17.0915 120.64 15.8668 120.64 14.1415C120.64 12.4164 119.485 11.1632 117.847 11.1632C116.211 11.1632 115.027 12.4164 115.027 14.1415ZM110.175 14.1415C110.175 9.88284 113.307 6.84896 116.607 6.84896C118.009 6.84896 119.167 7.27415 120.068 8.07975C120.274 8.26465 120.64 8.12845 120.64 7.8512C120.64 7.54469 120.838 7.34942 121.149 7.34942H124.929C125.239 7.34942 125.437 7.54469 125.437 7.8512V20.4319C125.437 20.7384 125.239 20.9323 124.929 20.9323H121.149C120.838 20.9323 120.64 20.737 120.64 20.4319C120.64 20.1458 120.261 20.0046 120.047 20.1942C119.15 20.9871 117.999 21.4057 116.607 21.4057C113.307 21.4057 110.175 18.4002 110.175 14.1415ZM108.004 20.4319V12.1655C108.004 8.15776 105.691 6.84896 103.293 6.84896C101.852 6.84896 100.639 7.28654 99.7566 8.1129C99.5163 8.33843 99.034 8.18106 99.034 7.8512C99.034 7.54469 98.836 7.34942 98.5254 7.34942H94.7456C94.4351 7.34942 94.2371 7.54469 94.2371 7.8512V20.4319C94.2371 20.7384 94.4351 20.9323 94.7456 20.9323H98.5254C98.836 20.9323 99.034 20.737 99.034 20.4319V13.1949C99.0627 11.4697 100.05 10.717 101.29 10.717C102.529 10.717 103.209 11.3572 103.209 13.1393V20.4319C103.209 20.7384 103.407 20.9323 103.717 20.9323H107.496C107.806 20.9323 108.004 20.737 108.004 20.4319ZM64.4556 14.1415C64.4556 15.8668 65.6112 17.0915 67.2486 17.0915C68.8855 17.0915 70.069 15.8668 70.069 14.1415C70.069 12.4164 68.8841 11.1632 67.2486 11.1632C65.6126 11.1632 64.4556 12.4164 64.4556 14.1415ZM59.5764 14.1415C59.5764 10.1338 62.7634 6.84896 67.2486 6.84896C71.7333 6.84896 74.9483 10.1338 74.9483 14.1415C74.9483 18.1493 71.7333 21.4057 67.2486 21.4057C62.7634 21.4057 59.5764 18.1493 59.5764 14.1415ZM86.3433 6.84896C84.9015 6.84896 83.6889 7.28654 82.8069 8.1129C82.5662 8.33843 82.0843 8.18106 82.0843 7.8512C82.0843 7.54469 81.8877 7.34942 81.576 7.34942H77.7961C77.4853 7.34942 77.2874 7.54469 77.2874 7.8512V20.4319C77.2874 20.7384 77.4839 20.9323 77.7961 20.9323H81.576C81.8864 20.9323 82.0843 20.737 82.0843 20.4319V13.1949C82.1117 11.4697 83.0999 10.717 84.341 10.717C85.5818 10.717 86.2596 11.3572 86.2596 13.1393V20.4319C86.2596 20.7384 86.4576 20.9323 86.7681 20.9323H90.5479C90.8576 20.9323 91.0556 20.737 91.0556 20.4319V12.1655C91.0556 8.15776 88.7422 6.84896 86.345 6.84896M53.1205 20.9338C52.8096 20.9338 52.613 20.7384 52.613 20.4333V12.6674C52.613 11.3585 51.9644 10.7183 50.9487 10.7183C49.7639 10.7183 48.8899 11.4697 48.8611 13.1963V20.4333C48.8611 20.7398 48.6632 20.9338 48.3537 20.9338H44.574C44.2633 20.9338 44.0668 20.7384 44.0668 20.4333V12.6674C44.0668 11.3585 43.3892 10.7183 42.2896 10.7183C41.19 10.7183 40.3145 11.4697 40.287 13.1963V20.4333C40.287 20.7398 40.0891 20.9338 39.7798 20.9338H36.0001C35.6894 20.9338 35.4915 20.7384 35.4915 20.4333V7.85257C35.4915 7.54606 35.6894 7.35075 36.0001 7.35075H39.7798C40.0905 7.35075 40.287 7.54606 40.287 7.85257C40.287 8.14914 40.7165 8.28735 40.9281 8.07957C41.7414 7.28106 42.8511 6.85029 44.1795 6.85029C45.9003 6.85029 47.3942 7.46197 48.2412 9.15997C49.144 7.6573 50.7233 6.85029 52.7259 6.85029C55.0956 6.85029 57.4086 8.15908 57.4086 12.1669V20.4333C57.4086 20.7398 57.2107 20.9338 56.9003 20.9338H53.1205ZM14.9984 7.80918V19.7525C14.9984 20.1552 15.4917 20.3559 15.7804 20.0725L28.5312 7.48912C28.8199 7.20427 29.3133 7.40636 29.3133 7.80918V20.4875C29.3133 20.7371 29.1086 20.9392 28.8556 20.9392H1.69219C1.28397 20.9392 1.08055 20.4522 1.36781 20.1674L14.2163 7.48912C14.5049 7.20427 14.9984 7.40636 14.9984 7.80918Z" fill="currentColor"></path></g><defs><clipPath id="clip0_2393_17817"><rect width="133.692" height="22" fill="currentColor" transform="translate(0.819336)"></rect></clipPath></defs></svg>