<svg xmlns="http://www.w3.org/2000/svg" width="100%" viewBox="0 0 192 64" fill="none" class="logo_img u-max-width-14ch"><path d="M68.027 43.3136C64.939 43.3136 62.5726 42.64 60.9246 41.2896C59.2766 39.9408 58.3102 38.112 58.0254 35.8032L62.9278 34.792C63.5502 37.4912 65.2494 38.84 68.0254 38.84C70.8014 38.84 72.2286 37.9328 72.2286 36.1168C72.2286 35.3904 72.0334 34.7872 71.6446 34.3072C71.2558 33.8272 70.7422 33.4832 70.107 33.2768C69.4702 33.0688 68.7502 32.8752 67.947 32.6928C67.1422 32.512 66.3182 32.3616 65.4766 32.2448C64.6334 32.128 63.8094 31.9008 63.0062 31.5632C62.2014 31.2272 61.4814 30.8176 60.8462 30.3376C60.2094 29.8576 59.6974 29.144 59.3086 28.1968C58.9198 27.2496 58.7246 26.128 58.7246 24.8304C58.7246 22.7552 59.523 20.9776 61.1182 19.4992C62.7134 18.0208 65.003 17.2816 67.987 17.2816C70.971 17.2816 73.1294 17.9296 74.6222 19.2272C76.1134 20.5248 77.0158 22.224 77.3262 24.3248L72.4622 25.1424C71.9438 22.7296 70.3998 21.5232 67.8318 21.5232C66.587 21.5232 65.6062 21.8016 64.8942 22.36C64.1806 22.9184 63.8238 23.6512 63.8238 24.5584C63.8238 25.336 64.0766 25.9536 64.5822 26.4064C65.0878 26.8608 65.7358 27.184 66.5278 27.3792C67.3182 27.5728 68.2014 27.7488 69.1742 27.904C70.147 28.0592 71.1198 28.2736 72.0926 28.5456C73.0654 28.8176 73.947 29.1872 74.739 29.6544C75.5294 30.1216 76.179 30.8416 76.6846 31.8144C77.1902 32.7872 77.443 33.9872 77.443 35.4144C77.443 38.0096 76.6062 39.9744 74.9326 41.3104C73.259 42.6464 70.9566 43.3136 68.0254 43.3136H68.027Z" fill="currentColor"></path><path d="M89.859 24.1664C91.4414 24.1664 92.803 24.7312 93.9454 25.8592C95.0862 26.9872 95.6574 28.68 95.6574 30.9376V42.8448H90.8718V32.3376C90.8718 29.9776 89.9502 28.7968 88.1086 28.7968C86.8894 28.7968 85.7086 29.2384 84.5678 30.12V42.8448H79.7422V17.7456H84.5678V27.2016C86.0462 25.1776 87.811 24.1664 89.8606 24.1664H89.859Z" fill="currentColor"></path><path d="M106.201 43.3136C103.425 43.3136 101.246 42.4576 99.6635 40.7456C98.0811 39.0336 97.2891 36.6992 97.2891 33.7408C97.2891 30.9648 98.1003 28.6752 99.7211 26.872C101.342 25.0688 103.423 24.168 105.967 24.168C108.769 24.168 110.955 25.024 112.524 26.736C114.094 28.448 114.878 30.7824 114.878 33.7408C114.878 36.5168 114.067 38.8064 112.446 40.6096C110.825 42.4128 108.742 43.3136 106.199 43.3136H106.201ZM102.31 33.7408C102.31 37.3216 103.567 39.1104 106.084 39.1104C108.601 39.1104 109.859 37.32 109.859 33.7408C109.859 31.9248 109.559 30.576 108.963 29.6928C108.366 28.8112 107.406 28.3696 106.083 28.3696C103.566 28.3696 102.308 30.16 102.308 33.7392L102.31 33.7408Z" fill="currentColor"></path><path d="M126.36 24.1664C128.669 24.1664 130.485 25.0288 131.808 26.7536C133.131 28.48 133.792 30.7808 133.792 33.6608C133.792 36.5408 133.059 38.9664 131.594 40.704C130.128 42.4432 128.306 43.3104 126.127 43.3104C124.103 43.3104 122.571 42.5712 121.535 41.0928V49.6928H116.709V24.632H121.067L121.184 26.6944L121.535 26.8496C122.624 25.0592 124.232 24.1648 126.36 24.1648V24.1664ZM125.154 39.072C126.295 39.072 127.183 38.6192 127.819 37.7104C128.455 36.8032 128.773 35.4528 128.773 33.6624C128.773 32.0544 128.467 30.8288 127.859 29.9856C127.25 29.1424 126.373 28.72 125.232 28.72C123.727 28.72 122.495 29.2 121.535 30.16V37.4752C122.52 38.5392 123.727 39.0704 125.154 39.0704V39.072Z" fill="currentColor"></path><path d="M149.827 29.6544C151.59 29.9408 152.998 30.608 154.049 31.6576C155.1 32.7088 155.625 34.0768 155.625 35.7632C155.625 37.9424 154.814 39.6688 153.193 40.9392C151.572 42.2112 149.23 42.8464 146.169 42.8464H136.129V17.7456H145.196C148.257 17.7456 150.587 18.2768 152.182 19.3408C153.777 20.4048 154.575 21.9088 154.575 23.8544C154.575 26.4224 152.993 28.2512 149.828 29.3408V29.6528L149.827 29.6544ZM145.156 22.0272H141.382V27.8256H145.079C146.299 27.8256 147.291 27.5664 148.055 27.048C148.82 26.5296 149.204 25.816 149.204 24.9072C149.204 22.9872 147.855 22.0272 145.158 22.0272H145.156ZM146.012 38.5648C148.814 38.5648 150.215 37.424 150.215 35.1408C150.215 34.104 149.812 33.2992 149.009 32.728C148.204 32.1568 147.102 31.872 145.702 31.872H141.382V38.5648H146.012Z" fill="currentColor"></path><path d="M165.469 43.3136C162.693 43.3136 160.513 42.4576 158.931 40.7456C157.349 39.0336 156.557 36.6992 156.557 33.7408C156.557 30.9648 157.368 28.6752 158.989 26.872C160.609 25.0688 162.691 24.168 165.235 24.168C168.037 24.168 170.222 25.024 171.792 26.736C173.361 28.448 174.145 30.7824 174.145 33.7408C174.145 36.5168 173.334 38.8064 171.713 40.6096C170.093 42.4128 168.009 43.3136 165.467 43.3136H165.469ZM161.577 33.7408C161.577 37.3216 162.835 39.1104 165.352 39.1104C167.869 39.1104 169.126 37.32 169.126 33.7408C169.126 31.9248 168.827 30.576 168.23 29.6928C167.633 28.8112 166.673 28.3696 165.35 28.3696C162.833 28.3696 161.576 30.16 161.576 33.7392L161.577 33.7408Z" fill="currentColor"></path><path d="M172.669 42.8464L179.09 33.4288L173.447 24.6336H179.167L181.268 28.4464L182.007 30.0032H182.24L183.018 28.4464L185.276 24.6336H190.724L184.808 33.1952L191.191 42.8464H185.431L182.668 38.216L181.967 36.776H181.695L180.877 38.216L178.076 42.8464H172.666H172.669Z" fill="currentColor"></path><path d="M33.6791 7.54401C12.9831 7.91201 0.131922 18.8256 0.522322 27.064C0.826322 33.4608 9.18152 39.6496 19.5079 42.84C24.2311 31.0752 28.9559 19.3088 33.6791 7.54401Z" fill="currentColor"></path><path d="M16.9805 58.6096C37.6781 58.2416 50.5293 47.328 50.1373 39.0896C49.8333 32.6928 41.4781 26.504 31.1517 23.3136C26.4285 35.0784 21.7037 46.8448 16.9805 58.6096Z" fill="currentColor"></path></svg>