<svg xmlns="http://www.w3.org/2000/svg" width="100%" viewBox="0 0 96 28" fill="none" class="logo_img u-max-width-12ch"><g clip-path="url(#clip0_2393_17820)"><path d="M26.9111 15.7572C26.8229 16.2782 26.7693 16.8073 26.6402 17.3173C26.2865 18.722 25.4783 19.8093 24.2582 20.5903C24.1682 20.6485 24.0791 20.7075 23.96 20.7848C24.1764 21.2803 24.3901 21.7694 24.6401 22.3422C23.2572 21.6967 21.9463 21.0839 20.6089 20.4603C21.0344 19.0629 21.4553 17.6828 21.9053 16.2054C22.1681 16.7809 22.3963 17.2791 22.6208 17.7692C24.4937 17.4501 25.9147 15.9327 26.0793 14.0862C26.1111 13.7325 26.1274 13.3725 26.0983 13.0198C26.0156 12.0142 25.4292 11.4906 24.4055 11.4642C23.55 11.4415 22.7699 11.7288 22.0026 12.057C21.5862 12.2352 21.1862 12.4524 20.7707 12.6361C20.5534 12.7325 20.4807 12.8679 20.4816 13.1089C20.4916 15.219 20.4871 17.3291 20.4871 19.4393C20.4871 21.8522 20.4871 24.2651 20.4871 26.6779C20.4871 27.3098 20.3043 27.4935 19.6806 27.4935C15.6667 27.4935 11.6519 27.4862 7.63802 27.4998C6.85433 27.5026 6.67886 27.2634 6.66977 26.5116C6.64522 24.4669 6.66159 22.4213 6.66159 20.3766C6.66159 20.2584 6.66159 20.1402 6.66159 20.0057C6.07155 20.1157 5.50696 20.2384 4.93602 20.3239C4.21688 20.4312 3.49592 20.4512 2.77496 20.3084C1.61579 20.0784 0.873015 19.3875 0.601178 18.2537C0.253882 16.8027 0.231153 15.3408 0.681184 13.898C1.07303 12.6406 1.83035 11.6597 2.93406 10.9433C3.03407 10.8787 3.13408 10.8151 3.23408 10.7505C3.24227 10.7451 3.24681 10.7332 3.2759 10.6932C3.07044 10.2232 2.85588 9.73499 2.60404 9.1595C3.99141 9.805 5.3024 10.4159 6.6625 11.0496V10.6232C6.6625 7.57212 6.66522 4.52009 6.65886 1.46898C6.65886 1.06532 6.76614 0.733475 7.1098 0.500732H20.0943C20.4143 0.6962 20.4952 0.984401 20.4943 1.34897C20.4834 4.27008 20.4889 7.19118 20.4889 10.1123C20.4889 10.2387 20.4889 10.3659 20.4889 10.5296C20.6262 10.5023 20.7189 10.4869 20.8107 10.4659C21.8599 10.225 22.9181 10.0732 23.9937 10.2523C25.2201 10.4569 26.1456 11.0405 26.422 12.3424C26.6075 13.217 26.7502 14.1007 26.912 14.9808V15.7599L26.9111 15.7572ZM17.6196 11.646C18.3769 11.3451 19.0815 11.0478 19.8007 10.7887C20.0361 10.7041 20.1079 10.6005 20.107 10.3559C20.0989 7.36938 20.1016 4.38372 20.1016 1.39716C20.1016 0.894395 20.0943 0.887122 19.5943 0.887122C15.6667 0.887122 11.7401 0.887122 7.81257 0.887122C7.38588 0.887122 7.17253 1.09895 7.17253 1.52262C7.17253 9.81045 7.17253 18.0983 7.17253 26.3852C7.17253 26.4716 7.17799 26.5588 7.17071 26.6452C7.13162 27.1071 7.13071 27.108 7.58347 27.108C11.5974 27.108 15.6113 27.108 19.6252 27.108C20.0779 27.108 20.1007 27.0843 20.1007 26.6307C20.1007 22.2167 20.1007 17.8019 20.1007 13.388C20.1007 13.2752 20.0907 13.1625 20.0843 13.0152C19.9361 13.0961 19.8216 13.1525 19.7134 13.2189C19.1079 13.5962 18.5115 13.9871 17.8969 14.3489C17.6805 14.4762 17.6132 14.618 17.6141 14.8635C17.6232 18.0337 17.6205 21.2039 17.6196 24.3742C17.6196 24.8587 17.5114 24.9687 17.035 24.9687C14.7521 24.9687 12.4693 24.9687 10.1864 24.9687C9.72088 24.9687 9.58906 24.8406 9.58906 24.3732C9.58815 17.4491 9.58815 10.5241 9.58906 3.60003C9.58906 3.13364 9.70179 3.0209 10.1564 3.0209C12.4502 3.0209 14.7439 3.0209 17.0368 3.0209C17.5332 3.0209 17.6187 3.10727 17.6187 3.60731C17.6187 6.1502 17.6187 8.69219 17.6187 11.2351V11.6451L17.6196 11.646ZM10.0309 15.7181C10.1209 15.679 10.1891 15.6554 10.2527 15.6208C12.4865 14.4144 14.7176 13.2043 16.9568 12.007C17.1705 11.8924 17.2396 11.7697 17.2387 11.5342C17.2305 8.94857 17.2332 6.36204 17.2332 3.7755V3.43275H10.0309V15.7172V15.7181ZM10.0154 24.5669C10.1655 24.5733 10.2618 24.5814 10.3573 24.5814C12.532 24.5814 14.7058 24.576 16.8805 24.5887C17.1723 24.5905 17.2405 24.5042 17.2396 24.2223C17.2296 21.193 17.2332 18.1646 17.2323 15.1354C17.2323 15.0353 17.2205 14.9353 17.2105 14.789C17.0532 14.879 16.9432 14.9444 16.8314 15.0053C14.6558 16.1827 12.4829 17.3628 10.3018 18.5283C10.0909 18.641 10.0082 18.7501 10.01 18.9902C10.0209 20.7321 10.0154 22.4731 10.0154 24.2151V24.5651V24.5669ZM5.33332 15.3054C5.1033 14.7872 4.91601 14.3408 4.70236 13.9062C4.66418 13.828 4.50144 13.7434 4.42144 13.7634C2.59131 14.2217 1.45396 15.4754 1.1694 17.3273C1.00484 18.3992 1.73489 19.2047 2.81133 19.132C3.02589 19.1174 3.24045 19.082 3.45046 19.0356C4.49326 18.8074 5.44332 18.3419 6.39066 17.871C6.59067 17.771 6.66886 17.6583 6.66795 17.4273C6.65795 15.4272 6.6625 13.428 6.66159 11.4278C6.66159 11.3442 6.64795 11.2615 6.64068 11.1778C6.62522 11.1778 6.60977 11.1778 6.59431 11.1778C6.18246 12.527 5.76971 13.8753 5.33332 15.3045V15.3054ZM21.979 17.3446C21.6781 18.3247 21.4008 19.2074 21.1444 20.0957C21.1262 20.1593 21.2344 20.303 21.3162 20.343C21.819 20.5921 22.3299 20.823 22.839 21.0594C23.1454 21.2021 23.4527 21.343 23.8355 21.5203C23.7236 21.263 23.6655 21.0785 23.5682 20.9167C23.4273 20.6821 23.5036 20.563 23.7246 20.4412C25.3628 19.5338 26.2356 18.1119 26.4375 16.2763C26.4966 15.7363 26.4466 15.1845 26.4466 14.639C25.9547 16.6 24.6401 17.6755 22.7636 18.1756C22.5108 18.2428 22.3454 18.1719 22.2454 17.931C22.1754 17.7637 22.0954 17.6001 21.979 17.3455V17.3446ZM5.26695 14.1571C5.57606 13.1425 5.86153 12.207 6.15155 11.2533C5.25331 10.8342 4.37961 10.4269 3.41137 9.97501C3.5632 10.3305 3.67411 10.5914 3.80139 10.8878C1.38941 12.1397 0.613906 14.2171 0.804828 16.7736C0.849377 16.7627 0.870287 16.7391 0.87756 16.7109C1.36032 14.8172 2.67768 13.8107 4.48144 13.3225C4.72782 13.2561 4.90238 13.328 5.00238 13.5716C5.07148 13.7398 5.15148 13.9044 5.26604 14.158L5.26695 14.1571ZM18.2505 12.3734C18.2569 12.7779 18.576 13.0961 18.9706 13.0916C19.3715 13.087 19.7088 12.7316 19.6925 12.3315C19.6761 11.937 19.3443 11.6315 18.9442 11.6406C18.5333 11.6506 18.2433 11.9561 18.2505 12.3734Z" fill="currentColor"></path><path d="M31.4857 12.8978C31.4857 15.5012 37.5736 15.2809 37.5736 18.405C37.5736 20.4877 35.8914 21.7294 33.5684 21.7294C32.3068 21.7294 31.0251 21.3889 30.1439 20.7881L29.5832 20.9884L29.3829 18.405C29.7634 19.3262 31.1452 21.5091 33.5684 21.5091C34.9102 21.5091 35.9515 20.8082 35.9515 19.7267C35.9515 17.5038 29.5832 17.604 29.5832 13.9993C29.5832 11.8965 31.6659 11.0754 33.3882 11.0754C34.4696 11.0754 35.4709 11.4359 36.0516 11.7964L36.4321 11.6162L36.6124 13.819C36.2319 12.7176 35.2907 11.2557 33.3882 11.2557C32.4469 11.2557 31.4857 11.6562 31.4857 12.8978ZM43.7861 21.4089C43.9263 21.1886 44.5471 21.1085 44.5471 20.3476V13.2182C44.5471 12.4573 43.9263 12.3771 43.7861 12.1569L47.0303 11.3959V20.3476C47.0303 21.1085 47.6512 21.1886 47.7913 21.4089H43.7861ZM38.5793 21.4089C38.7195 21.1886 39.3403 21.1085 39.3403 20.3476V6.62965C39.3403 5.88868 38.7195 5.78855 38.5793 5.56826L41.8236 4.80727C44.487 4.18646 45.7287 3.94615 47.3508 4.92743C48.2319 5.46813 48.7926 6.44941 48.7926 7.53082C48.7926 9.11289 47.491 10.4947 45.8088 10.4947C44.9677 10.4947 44.2868 9.79378 44.2868 8.99273C44.2868 8.15163 44.9677 7.45072 45.8088 7.45072C46.6699 7.45072 47.3107 8.15163 47.3107 8.99273C47.3107 9.43331 47.1505 9.79378 46.8501 10.0741C47.8915 9.67362 48.6124 8.71237 48.6124 7.53082C48.6124 6.48946 48.1118 5.60831 47.2106 5.06761C45.7086 4.16643 44.5471 4.34667 41.8236 4.9875V20.3476C41.8236 21.1085 42.4444 21.1886 42.5845 21.4089H38.5793ZM53.5695 21.0485C55.0314 21.5291 56.6936 20.9884 57.795 20.0872C57.014 21.1486 55.5721 21.7294 54.0702 21.7294C51.1263 21.7294 48.7432 19.3462 48.7432 16.4024C48.7432 13.4786 51.1263 11.0754 54.0702 11.0754C55.3318 11.0754 56.6535 11.6362 57.4145 12.7376L56.0728 13.2984C55.8925 12.3771 55.1315 11.2757 54.0702 11.2557C52.1677 11.2557 51.3066 13.6989 51.3066 16.4024C51.3066 18.2849 51.8072 20.4277 53.5695 21.0485ZM62.54 11.2557C61.1381 11.2557 60.6375 13.2984 60.5574 15.6614H64.3623C64.3423 12.9779 64.102 11.2557 62.54 11.2557ZM57.974 16.4024C57.974 13.4986 59.8965 11.0754 62.54 11.0754C64.843 11.0754 66.7254 13.0781 66.7254 15.8417H60.5574C60.4773 17.2235 60.6575 20.3075 62.4599 21.0685C63.9418 21.6893 65.1233 20.9483 66.1647 20.0872C65.5038 21.0685 64.4425 21.7294 63.1007 21.7294C60.1569 21.7294 57.974 19.3462 57.974 16.4024ZM70.8654 20.3476C70.8654 21.1085 71.4862 21.1886 71.6264 21.4089H67.6211C67.7613 21.1886 68.3821 21.1085 68.3821 20.3476V13.2182C68.3821 12.4773 67.7613 12.3771 67.6211 12.1569L70.8654 11.3959V20.3476ZM68.1018 8.9727C68.1018 7.27048 70.8854 6.24915 73.1083 7.01014C74.6303 7.55085 76.0722 9.01276 76.0722 11.3959V12.8177C77.0735 11.5761 78.3351 11.0754 79.4966 11.0754C81.2389 11.0754 82.7208 12.3771 82.7208 14.2997V20.3476C82.7208 21.1085 83.3416 21.1886 83.4818 21.4089H79.4766C79.6168 21.1886 80.2376 21.1085 80.2376 20.3476V14.2997C80.2376 12.8978 79.2763 12.0367 78.1349 12.0367C77.474 12.0567 76.8131 12.3771 76.1523 13.038L76.0722 13.1181V20.3476C76.0722 21.1085 76.693 21.1886 76.8332 21.4089H72.8279C72.9681 21.1886 73.5889 21.1085 73.5889 20.3476V13.2182C73.5889 12.4773 72.9681 12.3771 72.8279 12.1569L74.6303 11.7363C75.4113 11.5561 75.912 11.0354 75.7517 10.2944C75.3312 8.65229 74.2498 7.63095 73.0482 7.21041C71.7866 6.76983 70.3647 6.91001 69.4035 7.47075C69.4635 7.45072 69.5436 7.45072 69.6237 7.45072C70.4648 7.45072 71.1457 8.13161 71.1457 8.9727C71.1457 9.8138 70.4648 10.4947 69.6237 10.4947C68.7826 10.4947 68.1018 9.8138 68.1018 8.9727ZM94.4111 20.3476C94.4111 21.1085 95.0319 21.1886 95.1721 21.4089H91.1669C91.307 21.1886 91.9279 21.1085 91.9279 20.3476V14.2997C91.9279 12.8978 90.9666 12.0367 89.8251 12.0367C89.1442 12.0567 88.4033 12.3771 87.7624 13.1181V20.3476C87.7624 21.1085 88.3832 21.1886 88.5234 21.4089H84.5182C84.6584 21.1886 85.2792 21.1085 85.2792 20.3476V13.2182C85.2792 12.4573 84.6584 12.3771 84.5182 12.1569L87.7624 11.3959V12.8177C88.7637 11.5761 90.0254 11.0754 91.1869 11.0754C92.9292 11.0754 94.4111 12.3771 94.4111 14.2997V20.3476Z" fill="currentColor"></path></g><defs><clipPath id="clip0_2393_17820"><rect width="95.3073" height="27" fill="currentColor" transform="translate(0.34375 0.5)"></rect></clipPath></defs></svg>