<svg xmlns="http://www.w3.org/2000/svg" width="100%" viewBox="0 0 118 26" fill="none" class="logo_img u-max-width-16ch"><g clip-path="url(#clip0_2393_17749)"><mask style="mask-type:luminance" maskUnits="userSpaceOnUse" x="0" y="0" width="118" height="26"><path d="M117.926 0.665039H0.0693359V25.3365H117.926V0.665039Z" fill="currentColor"></path></mask><g mask="url(#mask0_2393_17749)"><path fill-rule="evenodd" clip-rule="evenodd" d="M104.138 21.6495V9.83767V6.08588H110.876C112.27 6.08588 113.468 6.31505 114.477 6.76683C115.485 7.21862 116.265 7.86683 116.815 8.71147C117.365 9.55615 117.64 10.5645 117.64 11.7365C117.64 12.8954 117.365 13.8906 116.815 14.7287C116.265 15.5669 115.485 16.2085 114.477 16.6537L114.444 16.6669L117.921 21.6562H114.032L111.046 17.3216H110.876H107.74V21.6562H104.138V21.6495ZM93.8979 21.918C92.6667 21.918 91.5345 21.7216 90.5059 21.3287C89.4783 20.9359 88.5811 20.3794 87.8151 19.6526C87.049 18.9258 86.4597 18.0745 86.0342 17.0924C85.6085 16.1169 85.399 15.0365 85.399 13.871C85.399 12.699 85.6085 11.6252 86.0342 10.6495C86.4597 9.67401 87.0555 8.81623 87.8216 8.08945C88.5942 7.36266 89.4979 6.80612 90.5327 6.41326C91.5667 6.0204 92.7131 5.82397 93.9568 5.82397C95.3381 5.82397 96.5756 6.05314 97.6827 6.51147C98.789 6.96981 99.7184 7.63766 100.472 8.51505L98.1604 10.6495C97.597 10.0537 96.9818 9.61508 96.314 9.32695C95.6461 9.03885 94.9193 8.89481 94.1336 8.89481C93.3809 8.89481 92.6863 9.01266 92.0649 9.24838C91.4426 9.4841 90.9059 9.82455 90.4542 10.2698C90.0024 10.7151 89.6551 11.2388 89.4059 11.8478C89.1639 12.4567 89.0395 13.1312 89.0395 13.871C89.0395 14.5978 89.1639 15.2656 89.4059 15.8745C89.6488 16.4835 90.0024 17.0138 90.4542 17.4656C90.9059 17.9174 91.4426 18.2645 92.0577 18.5002C92.6738 18.7359 93.3542 18.8537 94.0943 18.8537C94.8077 18.8537 95.5024 18.7359 96.1765 18.5067C96.4184 18.4216 96.6613 18.3234 96.897 18.199V13.6287H100.19V19.9472C99.3452 20.5823 98.3631 21.0734 97.2434 21.4138C96.1238 21.7478 95.0113 21.918 93.8979 21.918ZM38.2235 21.918C36.9925 21.918 35.8597 21.7216 34.8318 21.3287C33.8038 20.9359 32.9068 20.3794 32.1407 19.6526C31.3746 18.9258 30.7853 18.0745 30.3597 17.0924C29.9342 16.1169 29.7246 15.0365 29.7246 13.871C29.7246 12.699 29.9342 11.6252 30.3597 10.6495C30.7853 9.67401 31.3811 8.81623 32.1472 8.08945C32.9199 7.36266 33.8235 6.80612 34.8579 6.41326C35.8925 6.0204 37.0383 5.82397 38.2824 5.82397C39.6639 5.82397 40.9014 6.05314 42.0079 6.51147C43.1145 6.96981 44.0443 7.63766 44.7972 8.51505L42.4859 10.6495C41.9228 10.0537 41.3074 9.61508 40.6395 9.32695C39.9717 9.03885 39.2449 8.89481 38.4592 8.89481C37.7061 8.89481 37.0121 9.01266 36.3901 9.24838C35.7681 9.4841 35.2311 9.82455 34.7793 10.2698C34.3276 10.7151 33.9806 11.2388 33.7318 11.8478C33.4895 12.4567 33.3651 13.1312 33.3651 13.871C33.3651 14.5978 33.4895 15.2656 33.7318 15.8745C33.974 16.4835 34.3276 17.0138 34.7793 17.4656C35.2311 17.9174 35.7681 18.2645 36.3835 18.5002C36.999 18.7359 37.68 18.8537 38.4199 18.8537C39.1335 18.8537 39.8276 18.7359 40.502 18.5067C40.7443 18.4216 40.9865 18.3234 41.2222 18.199V13.6287H44.5157V19.9472C43.671 20.5823 42.6889 21.0734 41.5693 21.4138C40.4496 21.7478 39.33 21.918 38.2235 21.918ZM53.9115 21.8329C52.6347 21.8329 51.5085 21.5645 50.5199 21.0341C49.5311 20.4972 48.7585 19.7704 48.1824 18.8406C47.6127 17.9109 47.3246 16.8567 47.3246 15.6716C47.3246 14.4734 47.6127 13.4062 48.1824 12.4829C48.752 11.5597 49.5311 10.8329 50.5199 10.3026C51.5085 9.77874 52.6347 9.51026 53.9115 9.51026C55.1686 9.51026 56.3014 9.77222 57.2901 10.3026C58.2853 10.8263 59.0645 11.5531 59.6276 12.4698C60.1907 13.3865 60.4722 14.4537 60.4722 15.6716C60.4722 16.8567 60.1907 17.9109 59.6276 18.8406C59.0645 19.7704 58.2853 20.4972 57.2901 21.0341C56.3014 21.5645 55.1752 21.8329 53.9115 21.8329ZM53.9115 18.9847C54.4877 18.9847 55.0115 18.8537 55.4699 18.5853C55.9282 18.3169 56.2949 17.937 56.5568 17.4395C56.8252 16.9419 56.9561 16.3526 56.9561 15.6716C56.9561 14.9776 56.8252 14.3817 56.5568 13.8906C56.2883 13.3995 55.9282 13.0263 55.4699 12.7579C55.0115 12.4895 54.4943 12.3585 53.9115 12.3585C53.3353 12.3585 52.8115 12.4895 52.3532 12.7579C51.8949 13.0263 51.5282 13.3995 51.2532 13.8906C50.9782 14.3817 50.8407 14.971 50.8407 15.6716C50.8407 16.3526 50.9782 16.9419 51.2532 17.4395C51.5282 17.937 51.8949 18.3169 52.3532 18.5853C52.8181 18.8472 53.3353 18.9847 53.9115 18.9847ZM67.249 21.6495H63.6478V6.08588H75.4139V8.97992H67.249V13.0919H74.4514V15.9859H67.249V21.6495ZM78.4717 21.6495V6.08588H82.0728V21.6495H78.4717ZM107.74 14.4472H110.673C111.786 14.4472 112.618 14.2049 113.161 13.727C113.711 13.2424 113.986 12.5812 113.986 11.7365C113.986 10.8787 113.711 10.2109 113.161 9.73294C112.611 9.26148 111.779 9.01921 110.673 9.01921H107.74V14.4472Z" fill="currentColor"></path><path fill-rule="evenodd" clip-rule="evenodd" d="M4.52172 0.665039C3.30386 0.665039 2.31517 1.65373 2.31517 2.87159C2.31517 4.08944 3.30386 5.07813 4.52172 5.07813C5.73957 5.07813 6.72172 4.08944 6.72172 2.87159C6.72172 1.65373 5.73303 0.665039 4.52172 0.665039ZM20.6354 15.3906C19.3586 16.4448 17.8592 17.2632 16.2354 17.8198C15.1223 18.1996 13.9503 18.4549 12.7521 18.5793V25.343H9.49787V18.5728V15.2989V11.5341C9.49787 7.17992 10.0282 4.54123 11.9009 2.8323C13.7277 1.17575 16.5366 0.723968 21.1199 0.723968V3.97813C17.3681 3.97813 15.1747 4.24659 14.0878 5.24183C13.0467 6.19123 12.7521 8.14243 12.7521 11.5406V15.3055C13.5967 15.2007 14.4152 15.0109 15.1943 14.7424C16.458 14.3103 17.6038 13.6882 18.5729 12.8895L20.6354 15.3906ZM7.88719 18.3239C6.87231 18.1145 5.88362 17.8067 4.9604 17.4073C3.04196 16.5888 1.35922 15.3841 0.0693359 13.865L2.54433 11.7698C3.50029 12.896 4.77053 13.793 6.2241 14.4216C6.75446 14.6507 7.311 14.8406 7.88064 14.9913V18.3239H7.88719Z" fill="currentColor"></path></g></g><defs><clipPath id="clip0_2393_17749"><rect width="117.857" height="25" fill="currentColor" transform="translate(0.0703125 0.5)"></rect></clipPath></defs></svg>