<svg xmlns="http://www.w3.org/2000/svg" width="100%" viewBox="0 0 110 26" fill="none" class="logo_img u-max-width-16ch"><g><mask style="mask-type:luminance" maskUnits="userSpaceOnUse" x="0" y="0" width="109" height="26"><path d="M108.781 0.276855H0.944336V25.7226H108.781V0.276855Z" fill="currentColor"></path></mask><g><mask style="mask-type:luminance" maskUnits="userSpaceOnUse" x="0" y="0" width="109" height="26"><path d="M108.78 0.2771H0.943359V25.7229H108.78V0.2771Z" fill="currentColor"></path></mask><g mask="url(#mask1_2393_17842)"><path d="M34.3496 10.1562H35.3691V14.7533H35.395C35.8789 14.1172 36.6306 13.7337 37.4462 13.7337C39.2297 13.7337 40.3253 15.1992 40.3253 16.8928C40.3253 18.5864 39.2175 20.0518 37.4599 20.0518C36.6321 20.0518 35.8804 19.7079 35.3965 19.0582H35.3707V19.8859H34.3511V10.1562H34.3496ZM35.3174 16.8289C35.3174 18.0006 36.0052 19.1083 37.2789 19.1083C38.5525 19.1083 39.2783 18.0508 39.2783 16.8411C39.2783 15.6313 38.5266 14.6757 37.2667 14.6757C36.0813 14.6757 35.3174 15.7074 35.3174 16.8289Z" fill="currentColor"></path><path d="M44.499 16.9066C44.499 15.149 45.8868 13.7354 47.6443 13.7354C49.4019 13.7354 50.7912 15.149 50.7912 16.9066C50.7912 18.6641 49.3898 20.0534 47.6443 20.0534C45.899 20.0534 44.499 18.6656 44.499 16.9066ZM45.5186 16.8944C45.5186 18.1179 46.3844 19.11 47.6458 19.11C48.9074 19.11 49.7732 18.1164 49.7732 16.8944C49.7732 15.6725 48.9074 14.6788 47.6458 14.6788C46.3844 14.6788 45.5186 15.6847 45.5186 16.8944Z" fill="currentColor"></path><path d="M56.4951 14.6251H56.521C56.941 14.0514 57.4888 13.7334 58.2284 13.7334C59.884 13.7334 60.2659 14.931 60.2659 16.3324V19.8856H59.2463V16.5105C59.2463 15.5427 59.1703 14.6753 57.9849 14.6753C56.5834 14.6753 56.4951 15.9749 56.4951 17.0446V19.8856H55.4756V13.8993H56.4951V14.6251Z" fill="currentColor"></path><path d="M69.9302 19.0582H69.9042C69.4081 19.7079 68.6566 20.0518 67.8409 20.0518C66.0834 20.0518 64.9756 18.5621 64.9756 16.905C64.9756 15.2478 66.0575 13.7337 67.8546 13.7337C68.6566 13.7337 69.4218 14.1157 69.9055 14.7533H69.9315V10.1562H70.951V19.8859H69.9315V19.0582H69.9302ZM66.0194 16.8289C66.0194 18.0006 66.7073 19.1083 67.9809 19.1083C69.2546 19.1083 69.9801 18.0508 69.9801 16.8411C69.9801 15.6313 69.2287 14.6757 67.9672 14.6757C66.7833 14.6757 66.0179 15.7074 66.0179 16.8289H66.0194Z" fill="currentColor"></path><path d="M81.5849 19.8856H80.5647V19.0578H80.5394C80.0174 19.7198 79.316 20.0515 78.4758 20.0515C76.7181 20.0515 75.6104 18.5617 75.6104 16.9046C75.6104 15.2475 76.6921 13.7334 78.4895 13.7334C79.3051 13.7334 80.0434 14.1153 80.5408 14.7529H80.5668V13.8993H81.5862V19.8856H81.5849ZM76.6558 16.8285C76.6558 18.0002 77.3435 19.108 78.6175 19.108C79.8908 19.108 80.6167 18.0504 80.6167 16.8407C80.6167 15.6309 79.8648 14.6753 78.6038 14.6753C77.4194 14.6753 76.6545 15.707 76.6545 16.8285H76.6558Z" fill="currentColor"></path><path d="M86.7021 10.1562H87.7216V14.7533H87.7476C88.2314 14.1172 88.9833 13.7337 89.7989 13.7337C91.5819 13.7337 92.678 15.1992 92.678 16.8928C92.678 18.5864 91.5703 20.0518 89.8126 20.0518C88.9847 20.0518 88.2327 19.7079 87.749 19.0582H87.723V19.8859H86.7035V10.1562H86.7021ZM87.6703 16.8289C87.6703 18.0006 88.3579 19.1083 89.6312 19.1083C90.9052 19.1083 91.6312 18.0508 91.6312 16.8411C91.6312 15.6313 90.8793 14.6757 89.6189 14.6757C88.4339 14.6757 87.6703 15.7074 87.6703 16.8289Z" fill="currentColor"></path><path d="M98.3798 19.8859H97.3604V10.1562H98.3798V19.8859Z" fill="currentColor"></path><path d="M104.073 17.1091C104.085 18.2169 104.875 19.1086 106.034 19.1086C106.901 19.1086 107.462 18.5866 107.856 17.873L108.722 18.369C108.148 19.4388 107.18 20.0505 105.958 20.0505C104.175 20.0505 103.029 18.6871 103.029 16.9676C103.029 15.248 104.061 13.7324 105.934 13.7324C107.807 13.7324 108.877 15.3241 108.775 17.1076H104.075L104.073 17.1091ZM107.704 16.2433C107.564 15.3774 106.838 14.6759 105.946 14.6759C105.055 14.6759 104.253 15.3759 104.125 16.2433H107.704Z" fill="currentColor"></path><path d="M7.82296 9.72104V11.2473L13.6556 8.50821L19.5583 11.2823V9.71946C19.5583 7.52828 21.3326 5.75243 23.5192 5.75243H26.4379L15.6505 0.721705C14.386 0.128247 12.9252 0.128247 11.6622 0.721705L0.943359 5.75396H3.86197C6.05017 5.75396 7.82296 7.52978 7.82296 9.72104Z" fill="currentColor"></path><path d="M23.8479 25.7233H3.53329C2.10289 25.7233 0.943359 24.5623 0.943359 23.1289V5.75415H3.86197C6.05017 5.75415 7.82296 7.52996 7.82296 9.72122V18.7646H19.5583V9.72122C19.5583 7.52996 21.3326 5.75415 23.5192 5.75415H26.4379V23.1289C26.4379 24.5608 25.2783 25.7233 23.8479 25.7233Z" fill="currentColor"></path></g></g></g><defs><clipPath id="clip0_2393_17842"><rect width="108.105" height="26" fill="currentColor" transform="translate(0.944336)"></rect></clipPath></defs></svg>