<svg xmlns="http://www.w3.org/2000/svg" width="100%" viewBox="0 0 100 32" fill="none" class="logo_img u-max-width-16ch"><path d="M10.9688 27.3517V20.1145C11.9006 19.7881 12.5709 18.8994 12.5709 17.8568C12.5709 16.5379 11.4979 15.4648 10.179 15.4648C8.86015 15.4648 7.78711 16.5379 7.78711 17.8568C7.78711 18.8994 8.4575 19.7888 9.38996 20.1145H9.39067V27.3517H9.38996C8.4575 27.6773 7.78711 28.5667 7.78711 29.6094C7.78711 30.9276 8.86015 31.9999 10.179 31.9999C11.4979 31.9999 12.5709 30.9268 12.5709 29.6094C12.5709 28.5667 11.9006 27.678 10.9688 27.3517ZM9.36524 17.8568C9.36524 17.4082 9.73046 17.043 10.179 17.043C10.6276 17.043 10.9928 17.4082 10.9928 17.8568C10.9928 18.3053 10.6276 18.6706 10.179 18.6706C9.73046 18.6706 9.36524 18.3053 9.36524 17.8568ZM10.179 30.4225C9.73046 30.4225 9.36524 30.0572 9.36524 29.6094C9.36524 29.1615 9.73046 28.7956 10.179 28.7956C10.6276 28.7956 10.9928 29.1608 10.9928 29.6094C10.9928 30.058 10.6276 30.4225 10.179 30.4225Z" fill="currentColor"></path><path d="M17.9114 22.5692V13.5822C17.9114 11.1098 16.1207 9.04917 13.7697 8.62603C14.6782 7.71122 15.2412 6.45027 15.2412 5.06146C15.2412 2.27042 12.9701 0 10.1783 0C7.38656 0 5.11685 2.27112 5.11685 5.06146C5.11685 6.45027 5.67916 7.71122 6.58831 8.62603C4.23666 9.04917 2.4466 11.1098 2.4466 13.5822V22.5692C1.51414 22.8949 0.84375 23.7843 0.84375 24.8262C0.84375 26.1451 1.91679 27.2181 3.23567 27.2181C4.55455 27.2181 5.62618 26.1451 5.62618 24.8262C5.62618 23.7843 4.95579 22.8963 4.02403 22.5692V13.5822C4.02403 11.6749 5.57531 10.1243 7.48193 10.1243H12.8768C14.7834 10.1243 16.3347 11.6749 16.3347 13.5822V22.5692C15.4022 22.8949 14.7319 23.7843 14.7319 24.8262C14.7319 26.1451 15.8049 27.2181 17.1238 27.2181C18.4427 27.2181 19.5143 26.1451 19.5143 24.8262C19.5143 23.7843 18.8439 22.8963 17.9121 22.5692H17.9114ZM4.04805 24.8262C4.04805 25.2748 3.68283 25.64 3.23496 25.64C2.7871 25.64 2.42117 25.2748 2.42117 24.8262C2.42117 24.3777 2.78639 24.0131 3.23496 24.0131C3.68354 24.0131 4.04805 24.3777 4.04805 24.8262ZM10.1783 8.54691C8.25686 8.54691 6.69427 6.98361 6.69427 5.06217C6.69427 3.14072 8.25686 1.57813 10.1783 1.57813C12.0998 1.57813 13.6631 3.14072 13.6631 5.06217C13.6631 6.98361 12.0998 8.54691 10.1783 8.54691ZM17.1231 25.64C16.6745 25.64 16.3093 25.2748 16.3093 24.8262C16.3093 24.3777 16.6745 24.0131 17.1231 24.0131C17.5716 24.0131 17.9362 24.3777 17.9362 24.8262C17.9362 25.2748 17.5709 25.64 17.1231 25.64Z" fill="currentColor"></path><path d="M26.2026 12.5876V14.857H30.5726V17.4457H26.2026V21.7656H23.5137V10H30.6565V12.5887H26.2026V12.5876Z" fill="currentColor"></path><path d="M40.1225 13.3601V21.7635H37.6014V20.9736C37.147 21.5957 36.307 21.9988 35.1979 21.9988C33.5005 21.9988 32.0547 20.7884 32.0547 18.52V13.3601H34.5758V18.1507C34.5758 19.1922 35.2317 19.6803 36.0379 19.6803C36.9618 19.6803 37.6014 19.1421 37.6014 17.9491V13.3601H40.1225Z" fill="currentColor"></path><path d="M45.1624 15.7811V18.7565C45.1624 19.4788 45.7845 19.5464 46.8937 19.4788V21.7646C43.599 22.1013 42.6413 21.1087 42.6413 18.7565V15.7811H41.2969V13.3613H42.6413V11.7651L45.1624 11.009V13.3624H46.8937V15.7822H45.1624V15.7811Z" fill="currentColor"></path><path d="M56.4408 13.3601V21.7635H53.9197V20.9736C53.4654 21.5957 52.6254 21.9988 51.5163 21.9988C49.8188 21.9988 48.373 20.7884 48.373 18.52V13.3601H50.8942V18.1507C50.8942 19.1922 51.55 19.6803 52.3563 19.6803C53.2802 19.6803 53.9197 19.1421 53.9197 17.9491V13.3601H56.4408Z" fill="currentColor"></path><path d="M63.3313 13.1926V16.0493C62.2897 15.8815 60.8102 16.301 60.8102 17.9657V21.7638H58.2891V13.3604H60.8102V14.8563C61.1468 13.7298 62.2723 13.1926 63.3313 13.1926Z" fill="currentColor"></path><path d="M68.5271 19.7479C69.2157 19.7479 69.804 19.4787 70.1407 19.1094L72.1573 20.2686C71.3337 21.4115 70.0906 21.9999 68.4933 21.9999C65.6192 21.9999 63.8379 20.0671 63.8379 17.5623C63.8379 15.0575 65.653 13.1248 68.3081 13.1248C70.7617 13.1248 72.5768 15.0238 72.5768 17.5623C72.5768 17.9153 72.543 18.252 72.4755 18.5712H66.5094C66.8286 19.445 67.6021 19.7479 68.526 19.7479H68.5271ZM70.0731 16.6885C69.804 15.7134 69.0479 15.3604 68.2918 15.3604C67.3341 15.3604 66.6946 15.8311 66.4592 16.6885H70.0731Z" fill="currentColor"></path><path d="M82.0756 16.6046V21.7645H79.5545V16.974C79.5545 15.9324 78.8986 15.4443 78.0924 15.4443C77.1685 15.4443 76.5289 15.9825 76.5289 17.1755V21.7634H74.0078V13.3601H76.5289V14.15C76.9832 13.5279 77.8233 13.1248 78.9324 13.1248C80.6298 13.1248 82.0756 14.3352 82.0756 16.6035V16.6046Z" fill="currentColor"></path><path d="M90.325 19.2434C90.325 21.1762 88.6438 21.9999 86.8287 21.9999C85.1476 21.9999 83.8707 21.3614 83.2148 19.9995L85.3993 18.7553C85.6183 19.3938 86.089 19.7468 86.8276 19.7468C87.4323 19.7468 87.7352 19.5615 87.7352 19.226C87.7352 18.3021 83.6005 18.7891 83.6005 15.8812C83.6005 14.0487 85.1465 13.1248 86.8952 13.1248C88.2571 13.1248 89.4664 13.7294 90.1724 14.9235L88.0206 16.0828C87.7853 15.6459 87.4487 15.343 86.8941 15.343C86.4572 15.343 86.1881 15.5108 86.1881 15.8137C86.1881 16.7713 90.3228 16.1329 90.3228 19.2423L90.325 19.2434Z" fill="currentColor"></path><path d="M95.7693 19.7479C96.4579 19.7479 97.0462 19.4787 97.3829 19.1094L99.3995 20.2686C98.5759 21.4115 97.3327 21.9999 95.7355 21.9999C92.8614 21.9999 91.0801 20.0671 91.0801 17.5623C91.0801 15.0575 92.8952 13.1248 95.5503 13.1248C98.0039 13.1248 99.819 15.0238 99.819 17.5623C99.819 17.9153 99.7852 18.252 99.7177 18.5712H93.7515C94.0708 19.445 94.8443 19.7479 95.7682 19.7479H95.7693ZM97.3153 16.6885C97.0462 15.7134 96.2901 15.3604 95.534 15.3604C94.5763 15.3604 93.9368 15.8311 93.7014 16.6885H97.3153Z" fill="currentColor"></path></svg>