<?xml version="1.0" encoding="utf-8"?>
<!-- Generator: Adobe Illustrator 24.3.0, SVG Export Plug-In . SVG Version: 6.00 Build 0)  -->
<svg version="1.1" id="Layer_1" xmlns="http://www.w3.org/2000/svg" xmlns:xlink="http://www.w3.org/1999/xlink" x="0px" y="0px"
	 width="16px" height="16px" viewBox="0 0 16 16" style="enable-background:new 0 0 16 16;" xml:space="preserve">
<style type="text/css">
	.st0{fill:#15C9A2;}
	.st1{fill:#FF4B72;}
</style>
<g>
	<g>
		<polygon class="st0" points="14.8,15.2 11.9,15.2 4.3,3.9 7.3,3.9 		"/>
		<polygon class="st0" points="9,12.4 6.1,12.4 2.3,6.8 5.3,6.8 		"/>
		<polygon class="st0" points="13.6,6.8 12.3,9.8 10.3,6.8 		"/>
		<g>
			<g>
				<path class="st1" d="M13.5,2.5C12.1,1,10.1,0.2,8,0.2S3.9,1,2.5,2.5C1,3.9,0.2,5.9,0.2,8c0,2.1,0.8,4.1,2.3,5.5
					C3.9,15,5.9,15.8,8,15.8c1.1,0,2.2-0.2,3.2-0.7L10.5,14c-0.8,0.3-1.6,0.5-2.5,0.5c-3.6,0-6.5-2.9-6.5-6.5c0-1.8,0.7-3.4,1.9-4.6
					c0,0,0.1-0.1,0.1-0.1C4.7,2.2,6.3,1.5,8,1.5c3.6,0,6.5,2.9,6.5,6.5c0,1.5-0.5,2.8-1.3,3.9l0.8,1.2c1.2-1.4,1.9-3.2,1.9-5.1
					C15.8,5.9,15,3.9,13.5,2.5z"/>
			</g>
		</g>
	</g>
</g>
</svg>
