<svg xmlns="http://www.w3.org/2000/svg" width="100%" viewBox="0 0 107 34" fill="none" class="logo_img u-max-width-12ch"><path d="M0.185547 33.1279L9.74662 17.7823L12.7275 22.2361L5.94045 33.0575L0.185547 33.1279ZM9.89597 17.5415L20.2822 0.87207L27.4482 12.0877L24.5445 16.7021L20.3188 10.1333L15.7002 17.4978L9.89597 17.5415Z" fill="currentColor"></path><path d="M38.2156 8.70264L22.9966 33.1278L14.1973 19.9845L20.334 19.938L22.96 23.8666L32.4605 8.77304L38.2156 8.70264Z" fill="currentColor"></path><path d="M52.4298 12.9217L51.1703 9.29223C51.1362 9.18482 51.0891 8.99885 51.0341 8.73962C50.9764 8.47774 50.9189 8.15818 50.8561 7.77845C50.7906 8.14242 50.7251 8.46977 50.665 8.75784C50.6048 9.04856 50.5576 9.23966 50.5263 9.33663L49.3138 12.9217H52.4302H52.4298ZM45.2754 17.1955L49.5518 5.96104H52.2989L56.6355 17.1955H53.9041L52.9902 14.8073H48.6379L47.8549 17.1955H45.2754ZM66.5867 8.88366C66.0996 8.4489 65.5995 8.13199 65.0889 7.93045C64.5782 7.72873 64.0309 7.62664 63.447 7.62664C62.2503 7.62664 61.2945 7.98548 60.5821 8.70034C59.8723 9.41785 59.5161 10.379 59.5161 11.5861C59.5161 12.7673 59.8461 13.7021 60.5062 14.396C61.166 15.09 62.0668 15.4358 63.2086 15.4358C63.858 15.4358 64.463 15.3257 65.0209 15.1084C65.5787 14.8911 66.0946 14.5664 66.5711 14.1317L66.5554 16.5958C66.0447 16.897 65.5079 17.1222 64.9475 17.2714C64.3871 17.4207 63.7979 17.494 63.1798 17.494C61.3886 17.494 59.9194 16.9387 58.7724 15.8257C57.6228 14.7128 57.0494 13.2986 57.0494 11.586C57.0494 9.87861 57.6255 8.46977 58.7751 7.35944C59.9247 6.24911 61.407 5.69385 63.2217 5.69385C63.8318 5.69385 64.4184 5.75666 64.9868 5.88495C65.5525 6.01323 66.1129 6.20964 66.6655 6.47683L66.5869 8.88347L66.5867 8.88366ZM73.0105 8.0037V17.1955H70.6066V8.0037H67.8568V5.96104H75.7601V8.0037H73.0105ZM77.3784 17.1955V5.96104H79.7824V17.1955H77.3784ZM93.8425 11.6019C93.8425 12.4057 93.6932 13.1652 93.3948 13.8802C93.0937 14.5978 92.6642 15.2263 92.1012 15.7684C91.5199 16.3262 90.8626 16.7531 90.1293 17.049C89.3987 17.3448 88.6419 17.4942 87.8587 17.4942C87.1752 17.4942 86.5023 17.379 85.8476 17.146C85.1902 16.9129 84.5879 16.5778 84.0406 16.143C83.3335 15.58 82.794 14.9095 82.417 14.1266C82.0425 13.3436 81.8539 12.5029 81.8539 11.6021C81.8539 10.7929 82.0033 10.0361 82.2991 9.32638C82.595 8.61931 83.0297 7.98814 83.6032 7.43573C84.1662 6.88844 84.8183 6.46411 85.562 6.16295C86.3057 5.86179 87.0731 5.70998 87.8585 5.70998C88.6415 5.70998 89.4036 5.86179 90.142 6.16295C90.8804 6.46411 91.5326 6.88844 92.1008 7.43573C92.669 7.98833 93.1013 8.61931 93.3971 9.3317C93.693 10.0414 93.8423 10.7982 93.8423 11.6023L93.8425 11.6019ZM87.8587 15.3572C88.8774 15.3572 89.7181 15.001 90.3806 14.2862C91.043 13.5738 91.3757 12.6809 91.3757 11.6045C91.3757 10.5413 91.0406 9.64576 90.3701 8.92028C89.6997 8.19499 88.8619 7.83083 87.8587 7.83083C86.8401 7.83083 85.9969 8.19214 85.3265 8.91763C84.656 9.64045 84.3209 10.536 84.3209 11.6045C84.3209 12.6887 84.6509 13.5869 85.3109 14.2939C85.9707 15.0037 86.8218 15.3572 87.8589 15.3572H87.8587ZM95.8669 17.1955V5.96104H98.3626L103.336 12.5001C103.477 12.6834 103.634 12.9426 103.807 13.2777C103.977 13.613 104.155 14.0083 104.341 14.4642C104.284 14.1315 104.242 13.8017 104.218 13.4741C104.192 13.1468 104.179 12.7358 104.179 12.246V5.96104H106.473V17.1955H104.116L99.0044 10.5335C98.863 10.3502 98.7059 10.091 98.5383 9.75583C98.3681 9.42051 98.1901 9.01991 98.0015 8.55384C98.0565 8.87853 98.0984 9.20323 98.1219 9.53323C98.1481 9.86324 98.1612 10.2796 98.1612 10.7798V17.1957H95.8673L95.8669 17.1955Z" fill="currentColor"></path><path d="M45.2754 28.2167V21.1013H46.7979V23.9573H49.883V21.1013H51.4055V28.2167H49.883V25.2411H46.7979V28.2167H45.2754ZM52.986 28.2167V21.1013H57.1755V22.3851H54.5085V23.848H57.1755V25.1417H54.5085V26.923H57.1755V28.2167H52.986ZM62.352 25.5098L61.5542 23.211C61.5328 23.143 61.5028 23.0252 61.4681 22.861C61.4317 22.6952 61.395 22.4929 61.3554 22.2525C61.314 22.483 61.2724 22.6902 61.2343 22.8728C61.1962 23.0569 61.1664 23.178 61.1464 23.2392L60.3786 25.5098H62.3522H62.352ZM57.8208 28.2167L60.5291 21.1013H62.2691L65.0156 28.2167H63.2857L62.7069 26.704H59.9503L59.4545 28.2167H57.8208ZM65.7605 28.2167V21.1013H67.283V26.923H69.711V28.2167H65.7603H65.7605Z" fill="currentColor"></path><path d="M72.7808 22.395V28.2167H71.2581V22.395H69.5166V21.1013H74.5221V22.395H72.7806H72.7808ZM75.5174 28.2167V21.1013H77.0399V23.9573H80.125V21.1013H81.6475V28.2167H80.125V25.2411H77.0399V28.2167H75.5174ZM86.2849 28.2167V21.1013H87.8074V23.9573H90.8924V21.1013H92.4149V28.2167H90.8924V25.2411H87.8074V28.2167H86.2849ZM100.116 21.0019V25.432C100.116 26.3957 99.862 27.1172 99.3529 27.5931C98.8437 28.0691 98.0774 28.3063 97.0525 28.3063C96.0126 28.3063 95.2379 28.0691 94.7288 27.5931C94.2196 27.1172 93.9659 26.3957 93.9659 25.432V21.0019H95.4786V25.1931C95.4786 25.7803 95.608 26.2215 95.8666 26.5183C96.127 26.8151 96.5136 26.9627 97.0293 26.9627C97.5468 26.9627 97.9398 26.8134 98.2053 26.5148C98.4706 26.2163 98.6035 25.7768 98.6035 25.1929V21.0017H100.116L100.116 21.0019ZM103.211 27.0325H103.808C104.189 27.0325 104.479 26.9496 104.677 26.782C104.874 26.6145 104.972 26.3708 104.972 26.0507C104.972 25.7488 104.874 25.5182 104.679 25.3607C104.483 25.2015 104.199 25.1218 103.828 25.1218H103.211V27.0325ZM103.211 23.9477H103.551C104.01 23.9477 104.335 23.883 104.526 23.7537C104.717 23.6243 104.813 23.407 104.813 23.1019C104.813 22.8034 104.722 22.591 104.539 22.465C104.355 22.3388 104.037 22.276 103.579 22.276H103.211V23.9479V23.9477ZM101.688 28.2169V21.1015H103.022C103.71 21.1015 104.214 21.1281 104.534 21.1812C104.853 21.2361 105.128 21.3239 105.362 21.4465C105.637 21.6057 105.85 21.8147 106 22.0735C106.151 22.3339 106.226 22.6275 106.226 22.9542C106.226 23.3755 106.102 23.7139 105.853 23.9693C105.602 24.223 105.231 24.3923 104.735 24.4767C105.309 24.5614 105.742 24.747 106.035 25.0356C106.329 25.3242 106.475 25.7074 106.475 26.1867C106.475 26.5367 106.39 26.8551 106.223 27.1454C106.053 27.4358 105.823 27.6595 105.528 27.8187C105.266 27.9614 104.957 28.0626 104.604 28.1239C104.251 28.1852 103.667 28.2167 102.851 28.2167H102.695H101.688V28.2169Z" fill="currentColor"></path></svg>