<svg xmlns="http://www.w3.org/2000/svg" width="100%" viewBox="0 0 117 26" fill="none" class="logo_img u-max-width-16ch"><g clip-path="url(#clip0_2393_17757)"><mask id="mask0_2393_17757" style="mask-type:luminance" maskUnits="userSpaceOnUse" x="0" y="0" width="117" height="26"><path d="M116.383 0.5H0.852539V25.5H116.383V0.5Z" fill="currentColor"></path></mask><g><path d="M46.2033 5.78857H28.1387V9.78581H34.4152V20.0869H38.4157V9.78581H42.2009L46.204 5.78857H46.2033Z" fill="currentColor"></path><path d="M49.7736 9.78508H61.1799V5.78784H48.3666L44.627 9.4919V20.085H61.1799V16.0878H48.6274V14.9182H56.0414V10.9531H48.6274L49.7731 9.78347V9.7855L49.7736 9.78508Z" fill="currentColor"></path><path d="M79.369 13.2294V9.49288L75.6299 5.78882H62.8164V20.0872H66.8169V16.935H74.1659L75.369 18.1375V20.0876H79.3695V16.4806L77.743 14.8554L79.3695 13.231V13.2302L79.369 13.2294ZM66.8169 9.78486H74.0034L75.369 11.1493V11.5713L74.0034 12.9683H66.8169V9.78366V9.78486Z" fill="currentColor"></path><path d="M97.557 13.2294V9.49288L93.8174 5.78882H81.0039V20.0872H85.0044V16.935H92.3534L93.5565 18.1375V20.0876H97.557V16.4806L95.9305 14.8554L97.557 13.231V13.2302V13.2294ZM85.0044 9.78486H92.1914L93.557 11.1493V11.5713L92.1914 12.9683H85.0044V9.78366V9.78486Z" fill="currentColor"></path><path d="M110.802 5.78857H99.1924V20.0869H103.16V16.9348H112.364V20.0869H116.364V11.3452L110.803 5.78857H110.802ZM109.143 9.78581L112.363 12.9705H103.159V9.78581H109.143Z" fill="currentColor"></path><path d="M23.7561 25.4764H5.79576C5.3968 25.4764 5.02517 25.2617 4.82548 24.9158L2.14879 20.2827C1.9491 19.9368 1.9491 19.5073 2.14879 19.1615L11.0877 3.68879C11.2874 3.34331 11.6599 3.12817 12.0581 3.12817H17.4134C17.8128 3.12817 18.184 3.34291 18.3837 3.68879L27.3631 19.2304C27.5628 19.5763 27.5628 20.0058 27.3631 20.3516L24.7257 24.9162C24.526 25.2621 24.1535 25.4768 23.7554 25.4768L23.7561 25.4764ZM12.0581 3.37738C11.7478 3.37738 11.4582 3.54457 11.3025 3.8128L2.36353 19.2855C2.20782 19.5549 2.20782 19.8893 2.36353 20.1583L5.04022 24.7914C5.19593 25.0597 5.48515 25.2268 5.79537 25.2268H23.7558C24.066 25.2268 24.3556 25.0597 24.5109 24.7914L27.1484 20.2268C27.3041 19.9578 27.3041 19.6234 27.1484 19.354L18.1682 3.8124C18.0125 3.54418 17.7233 3.37699 17.4126 3.37699H12.0573L12.0581 3.37738Z" fill="currentColor"></path><path d="M27.5934 23.6008L18.0815 7.13759L18.6104 6.22279L15.3121 0.522705L14.7859 1.43356L14.7812 1.42603L5.25464 17.9122H4.16313L0.881836 23.6008H21.0003L21.5407 24.5354L28.1306 24.5314L27.593 23.6003L27.5934 23.6008ZM18.3315 20.6261L16.7614 17.9094H11.8703L11.8838 17.8864H8.76573L9.23922 17.0813H12.3485L14.757 12.9141L14.7523 12.9055L16.3402 10.157L16.8014 10.9696L15.242 13.6681L17.6924 17.909L19.2661 20.6333L18.3311 20.6257L18.3315 20.6261Z" fill="currentColor"></path></g></g><defs><clipPath id="clip0_2393_17757"><rect width="115.625" height="25" fill="currentColor" transform="translate(0.852539 0.5)"></rect></clipPath></defs></svg>