<?xml version="1.0" encoding="utf-8"?>
<!-- Generator: Adobe Illustrator 24.3.0, SVG Export Plug-In . SVG Version: 6.00 Build 0)  -->
<svg version="1.1" id="Layer_1" xmlns="http://www.w3.org/2000/svg" xmlns:xlink="http://www.w3.org/1999/xlink" x="0px" y="0px"
	 width="579px" height="177.6px" viewBox="0 0 579 177.6" style="enable-background:new 0 0 579 177.6;" xml:space="preserve">
<style type="text/css">
	.st0{fill:#01E6DF;}
	.st1{fill:#0149D1;}
	.st2{fill:#01E4DB;}
</style>
<g>
	<g>
		<g>
			<g>
				<g>
					<path class="st0" d="M240.1,37.3l-10.9,38.9H220l-7.3-27.7l-7.6,27.7l-9.1,0.1l-10.5-38.9h8.4l6.9,30.2l7.9-30.2h8.7l7.5,30
						l6.9-30H240.1z"/>
				</g>
			</g>
			<g>
				<g>
					<path class="st0" d="M273.6,63.1H251c0.2,2.2,1,4,2.3,5.2c1.4,1.3,3.1,1.9,5.1,1.9c2.9,0,5-1.2,6.2-3.7h8.4
						c-0.9,3-2.6,5.4-5.1,7.3c-2.5,1.9-5.6,2.9-9.3,2.9c-3,0-5.6-0.7-8-2c-2.4-1.3-4.2-3.2-5.5-5.6c-1.3-2.4-2-5.2-2-8.4
						c0-3.2,0.6-6,2-8.4c1.3-2.4,3.1-4.3,5.5-5.6c2.3-1.3,5-2,8.1-2c2.9,0,5.6,0.6,7.9,1.9c2.3,1.3,4.1,3.1,5.4,5.4
						c1.3,2.3,1.9,5,1.9,8C273.8,61.2,273.7,62.2,273.6,63.1z M265.7,57.9c0-2-0.8-3.6-2.2-4.8c-1.4-1.2-3.1-1.8-5.2-1.8
						c-1.9,0-3.6,0.6-4.9,1.8c-1.3,1.2-2.1,2.8-2.4,4.9H265.7z"/>
				</g>
			</g>
			<g>
				<g>
					<path class="st0" d="M291.4,46.3c1.8-0.9,3.8-1.4,6-1.4c2.6,0,5,0.7,7.2,2c2.1,1.3,3.8,3.1,5.1,5.5c1.2,2.4,1.9,5.2,1.9,8.3
						c0,3.2-0.6,6-1.9,8.4c-1.2,2.4-2.9,4.3-5.1,5.7c-2.1,1.3-4.5,2-7.2,2c-2.3,0-4.3-0.5-6-1.4s-3.1-2.1-4.2-3.5v4.4h-7.8V35h7.8
						v14.9C288.3,48.4,289.7,47.2,291.4,46.3z M302.5,55.9c-0.8-1.4-1.8-2.4-3-3.1c-1.2-0.7-2.6-1.1-4-1.1c-1.4,0-2.7,0.4-4,1.1
						c-1.2,0.7-2.2,1.8-3,3.1c-0.8,1.4-1.1,3-1.1,4.8c0,1.9,0.4,3.5,1.1,4.8c0.8,1.4,1.8,2.4,3,3.1c1.2,0.7,2.6,1.1,4,1.1
						c1.4,0,2.8-0.4,4-1.1c1.2-0.7,2.2-1.8,3-3.2c0.8-1.4,1.1-3,1.1-4.9C303.6,58.8,303.2,57.2,302.5,55.9z"/>
				</g>
			</g>
			<g>
				<g>
					<path class="st0" d="M322.3,75.4c-2-0.9-3.6-2.1-4.8-3.7c-1.2-1.6-1.8-3.3-1.9-5.2h7.9c0.1,1.2,0.7,2.2,1.8,3
						c1,0.8,2.3,1.2,3.8,1.2c1.5,0,2.6-0.3,3.5-0.9c0.8-0.6,1.3-1.4,1.3-2.3c0-1-0.5-1.8-1.5-2.3c-1-0.5-2.6-1-4.9-1.6
						c-2.3-0.6-4.2-1.1-5.7-1.7c-1.5-0.6-2.7-1.5-3.8-2.7c-1.1-1.2-1.6-2.9-1.6-5c0-1.7,0.5-3.3,1.5-4.7c1-1.4,2.4-2.5,4.2-3.3
						c1.8-0.8,4-1.2,6.5-1.2c3.7,0,6.6,0.9,8.8,2.8c2.2,1.8,3.4,4.3,3.6,7.4h-7.5c-0.1-1.2-0.6-2.2-1.5-2.9
						c-0.9-0.7-2.1-1.1-3.6-1.1c-1.4,0-2.5,0.3-3.3,0.8c-0.8,0.5-1.1,1.2-1.1,2.2c0,1,0.5,1.8,1.6,2.4c1,0.5,2.7,1.1,4.8,1.6
						c2.2,0.6,4.1,1.1,5.5,1.7c1.4,0.6,2.7,1.5,3.8,2.8c1.1,1.2,1.6,2.9,1.6,4.9c0,1.8-0.5,3.4-1.5,4.8c-1,1.4-2.4,2.5-4.2,3.3
						c-1.8,0.8-4,1.2-6.4,1.2C326.6,76.7,324.3,76.3,322.3,75.4z"/>
				</g>
			</g>
			<g>
				<g>
					<path class="st0" d="M348.2,40.4c-0.9-0.9-1.4-2-1.4-3.3c0-1.3,0.5-2.4,1.4-3.3c0.9-0.9,2.1-1.3,3.4-1.3c1.4,0,2.5,0.4,3.4,1.3
						c0.9,0.9,1.4,2,1.4,3.3c0,1.3-0.5,2.4-1.4,3.3c-0.9,0.9-2.1,1.3-3.4,1.3C350.2,41.7,349.1,41.2,348.2,40.4z M355.4,45.4v30.9
						h-7.8V45.4H355.4z"/>
				</g>
			</g>
			<g>
				<g>
					<path class="st0" d="M372.2,51.8v14.9c0,1,0.3,1.8,0.8,2.3c0.5,0.5,1.3,0.7,2.5,0.7h3.6v6.6h-4.9c-6.6,0-9.9-3.2-9.9-9.6V51.8
						h-3.7v-6.4h3.7v-7.6h7.9v7.6h6.9v6.4H372.2z"/>
				</g>
			</g>
			<g>
				<g>
					<path class="st0" d="M413.2,63.1h-22.6c0.2,2.2,1,4,2.3,5.2c1.4,1.3,3.1,1.9,5.1,1.9c2.9,0,5-1.2,6.2-3.7h8.4
						c-0.9,3-2.6,5.4-5.1,7.3c-2.5,1.9-5.6,2.9-9.3,2.9c-3,0-5.6-0.7-8-2c-2.4-1.3-4.2-3.2-5.5-5.6c-1.3-2.4-2-5.2-2-8.4
						c0-3.2,0.6-6,2-8.4c1.3-2.4,3.1-4.3,5.5-5.6c2.3-1.3,5-2,8.1-2c2.9,0,5.6,0.6,7.9,1.9c2.3,1.3,4.1,3.1,5.4,5.4
						c1.3,2.3,1.9,5,1.9,8C413.4,61.2,413.4,62.2,413.2,63.1z M405.4,57.9c0-2-0.8-3.6-2.2-4.8c-1.4-1.2-3.1-1.8-5.2-1.8
						c-1.9,0-3.6,0.6-4.9,1.8c-1.3,1.2-2.1,2.8-2.4,4.9H405.4z"/>
				</g>
			</g>
		</g>
	</g>
	<g>
		<path class="st1" d="M201.5,148.3c-4.9-2.8-8.9-6.6-11.8-11.5c-2.9-4.9-4.3-10.5-4.3-16.7c0-6.1,1.4-11.7,4.3-16.6
			c2.9-4.9,6.8-8.8,11.8-11.5c4.9-2.8,10.4-4.2,16.3-4.2c6,0,11.4,1.4,16.3,4.2c4.9,2.8,8.8,6.6,11.7,11.5
			c2.9,4.9,4.3,10.4,4.3,16.6c0,6.2-1.4,11.8-4.3,16.7c-2.9,4.9-6.8,8.8-11.7,11.5c-4.9,2.8-10.4,4.2-16.3,4.2
			C211.9,152.4,206.5,151,201.5,148.3z M227.9,138.5c2.9-1.7,5.2-4.2,6.8-7.4c1.6-3.2,2.4-6.9,2.4-11.1c0-4.2-0.8-7.9-2.4-11.1
			s-3.9-5.6-6.8-7.3c-2.9-1.7-6.2-2.5-10-2.5s-7.2,0.8-10.1,2.5c-2.9,1.7-5.2,4.1-6.8,7.3s-2.4,6.9-2.4,11.1c0,4.2,0.8,7.9,2.4,11.1
			c1.6,3.2,3.9,5.7,6.8,7.4c2.9,1.7,6.3,2.6,10.1,2.6S225,140.3,227.9,138.5z"/>
		<path class="st1" d="M278.9,103.2c2.9-1.5,6.1-2.3,9.8-2.3c4.3,0,8.2,1.1,11.6,3.2c3.5,2.1,6.2,5.1,8.2,9c2,3.9,3,8.4,3,13.5
			c0,5.1-1,9.7-3,13.6c-2,3.9-4.8,7-8.2,9.2c-3.5,2.2-7.3,3.3-11.6,3.3c-3.7,0-6.9-0.8-9.7-2.3c-2.8-1.5-5.1-3.4-6.8-5.7v31h-12.7
			v-74h12.7v7.2C273.8,106.6,276,104.7,278.9,103.2z M296.8,118.7c-1.2-2.2-2.9-3.9-4.9-5c-2-1.1-4.2-1.7-6.6-1.7
			c-2.3,0-4.4,0.6-6.5,1.8c-2,1.2-3.6,2.9-4.9,5.1c-1.2,2.2-1.9,4.9-1.9,7.9c0,3,0.6,5.6,1.9,7.9c1.2,2.2,2.9,3.9,4.9,5.1
			c2,1.2,4.2,1.8,6.5,1.8c2.4,0,4.5-0.6,6.6-1.8c2-1.2,3.6-2.9,4.9-5.2c1.2-2.2,1.9-4.9,1.9-8C298.7,123.5,298,120.9,296.8,118.7z"
			/>
		<path class="st1" d="M335.5,112.1v24.2c0,1.7,0.4,2.9,1.2,3.7c0.8,0.8,2.2,1.1,4.1,1.1h5.9v10.7h-8c-10.7,0-16-5.2-16-15.6v-24.1
			h-6v-10.4h6V89.3h12.7v12.4h11.2v10.4H335.5z"/>
		<path class="st1" d="M356.7,93.6c-1.5-1.4-2.2-3.2-2.2-5.3c0-2.1,0.7-3.9,2.2-5.3c1.5-1.4,3.3-2.1,5.6-2.1c2.2,0,4.1,0.7,5.6,2.1
			c1.5,1.4,2.2,3.2,2.2,5.3c0,2.1-0.7,3.9-2.2,5.3c-1.5,1.4-3.3,2.1-5.6,2.1C360.1,95.7,358.2,95,356.7,93.6z M368.5,101.7v50.1
			h-12.7v-50.1H368.5z"/>
		<path class="st1" d="M458.1,106.6c3.8,3.8,5.7,9,5.7,15.8v29.4h-12.7v-27.7c0-3.9-1-6.9-3-9c-2-2.1-4.7-3.1-8.1-3.1
			c-3.4,0-6.2,1-8.2,3.1c-2,2.1-3,5.1-3,9v27.7h-12.7v-27.7c0-3.9-1-6.9-3-9c-2-2.1-4.7-3.1-8.1-3.1c-3.5,0-6.3,1-8.3,3.1
			c-2,2.1-3,5.1-3,9v27.7H381v-50.1h12.7v6.1c1.6-2.1,3.7-3.8,6.3-5c2.6-1.2,5.4-1.8,8.5-1.8c3.9,0,7.4,0.8,10.5,2.5
			c3.1,1.7,5.5,4,7.1,7.1c1.6-2.9,4-5.2,7.1-7c3.1-1.7,6.5-2.6,10.1-2.6C449.4,101,454.3,102.9,458.1,106.6z"/>
		<path class="st1" d="M475.6,113.1c2-3.9,4.8-6.9,8.2-9c3.5-2.1,7.3-3.2,11.6-3.2c3.7,0,7,0.8,9.8,2.3c2.8,1.5,5,3.4,6.7,5.7v-7.1
			h12.7v50.1h-12.7v-7.3c-1.6,2.4-3.9,4.3-6.7,5.8c-2.9,1.5-6.2,2.3-9.9,2.3c-4.2,0-8.1-1.1-11.5-3.3c-3.5-2.2-6.2-5.2-8.2-9.2
			c-2-3.9-3-8.5-3-13.6C472.5,121.5,473.5,117,475.6,113.1z M510.1,118.8c-1.2-2.2-2.8-3.9-4.9-5.1c-2-1.2-4.2-1.8-6.6-1.8
			c-2.4,0-4.5,0.6-6.5,1.7c-2,1.1-3.6,2.8-4.8,5c-1.2,2.2-1.9,4.8-1.9,7.8c0,3,0.6,5.7,1.9,7.9c1.2,2.3,2.9,4,4.9,5.2
			c2,1.2,4.2,1.8,6.5,1.8c2.4,0,4.6-0.6,6.6-1.8c2-1.2,3.7-2.9,4.9-5.1c1.2-2.2,1.8-4.8,1.8-7.9S511.3,121,510.1,118.8z"/>
		<path class="st1" d="M564.7,151.8l-10.3-15.6l-9.1,15.6h-13.6l16.4-25.1l-16.5-25h14.3l10.2,15.5l9.2-15.5h13.6l-16.5,25
			l16.6,25.1H564.7z"/>
	</g>
	<g>
		<polygon class="st0" points="165.9,171 132.7,171 47.3,42.8 80.5,42.8 		"/>
		<polygon class="st0" points="99.9,138.6 66.8,138.6 24.6,75.2 57.7,75.2 		"/>
		<polygon class="st0" points="152.7,75.2 137.4,109.3 114.7,75.2 		"/>
		<g>
			<path class="st1" d="M151.6,26C134.8,9.2,112.5,0,88.8,0S42.8,9.2,26,26C9.2,42.8,0,65.1,0,88.8c0,23.7,9.2,46,26,62.8
				c16.8,16.8,39.1,26,62.8,26c12.8,0,25.3-2.7,36.6-7.8l-8.7-13c-8.6,3.6-18,5.5-27.9,5.5c-40.5,0-73.4-32.9-73.4-73.4
				c0-20.3,8.3-38.6,21.6-51.9c0.5-0.5,1-0.9,1.4-1.4C51.5,23,69.3,15.4,88.8,15.4c40.5,0,73.4,32.9,73.4,73.4
				c0,16.5-5.5,31.8-14.7,44.1l9,13.4c13.7-16,21.2-36.2,21.2-57.5C177.6,65.1,168.4,42.8,151.6,26z"/>
		</g>
	</g>
</g>
</svg>
